<?xml version="1.0" encoding="UTF-8" standalone="no"?>
<!-- Generator: Adobe Illustrator 17.1.0, SVG Export Plug-In . SVG Version: 6.00 Build 0)  -->

<svg
   xmlns:dc="http://purl.org/dc/elements/1.1/"
   xmlns:cc="http://creativecommons.org/ns#"
   xmlns:rdf="http://www.w3.org/1999/02/22-rdf-syntax-ns#"
   xmlns:svg="http://www.w3.org/2000/svg"
   xmlns="http://www.w3.org/2000/svg"
   xmlns:sodipodi="http://sodipodi.sourceforge.net/DTD/sodipodi-0.dtd"
   xmlns:inkscape="http://www.inkscape.org/namespaces/inkscape"
   version="1.1"
   id="Capa_1"
   x="0px"
   y="0px"
   viewBox="0 0 399.99998 399.99998"
   xml:space="preserve"
   sodipodi:docname="checking.svg"
   width="400"
   height="400"
   inkscape:version="0.92.4 5da689c313, 2019-01-14"><metadata
   id="metadata39"><rdf:RDF><cc:Work
       rdf:about=""><dc:format>image/svg+xml</dc:format><dc:type
         rdf:resource="http://purl.org/dc/dcmitype/StillImage" /><dc:title></dc:title></cc:Work></rdf:RDF></metadata><defs
   id="defs37" /><sodipodi:namedview
   pagecolor="#ffffff"
   bordercolor="#666666"
   borderopacity="1"
   objecttolerance="10"
   gridtolerance="10"
   guidetolerance="10"
   inkscape:pageopacity="0"
   inkscape:pageshadow="2"
   inkscape:window-width="1533"
   inkscape:window-height="845"
   id="namedview35"
   showgrid="false"
   fit-margin-top="0"
   fit-margin-left="0"
   fit-margin-right="0"
   fit-margin-bottom="0"
   inkscape:zoom="1.2710928"
   inkscape:cx="-178.58649"
   inkscape:cy="250.17843"
   inkscape:window-x="67"
   inkscape:window-y="27"
   inkscape:window-maximized="1"
   inkscape:current-layer="Capa_1" />
<path
   d="m 10.771973,104.06705 h 71.814593 c 5.950438,0 10.771974,-5.37711 10.771974,-12.00783 V 12.00783 C 93.35854,5.37711 88.537004,0 82.586566,0 H 10.771973 C 4.8215353,0 0,5.37711 0,12.00783 v 80.05139 c 0,6.63072 4.8215353,12.00783 10.771973,12.00783 z M 21.543947,24.01566 H 71.814593 V 80.05139 H 21.543947 Z M 82.586566,295.93055 H 10.771973 C 4.8215353,295.93055 0,301.30765 0,307.93838 v 80.05379 C 0,394.62289 4.8215353,400 10.771973,400 h 71.814593 c 5.950438,0 10.771974,-5.37711 10.771974,-12.00783 v -80.05379 c 0,-6.63073 -4.821536,-12.00783 -10.771974,-12.00783 z M 71.814593,375.98194 H 21.543947 V 319.9438 H 71.814593 Z M 118.85149,26.15545 c 0,-6.63072 4.82154,-12.00783 10.77198,-12.00783 h 259.60456 c 5.95043,0 10.77197,5.37711 10.77197,12.00783 0,6.63073 -4.82154,12.00783 -10.77197,12.00783 H 129.62347 c -5.95044,0 -10.77198,-5.3747 -10.77198,-12.00783 z m 0,47.5414 c 0,-6.63072 4.82154,-12.00783 10.77198,-12.00783 h 161.5796 c 5.95044,0 10.77197,5.37711 10.77197,12.00783 0,6.63072 -4.82153,12.00783 -10.77197,12.00783 h -161.5796 c -5.95044,0 -10.77198,-5.37711 -10.77198,-12.00783 z m 0,102.53005 c 0,-6.63073 4.82154,-12.00783 10.77198,-12.00783 h 207.89908 c 5.95044,0 10.77198,5.3771 10.77198,12.00783 0,6.63072 -4.82154,12.00783 -10.77198,12.00783 H 129.62347 c -5.95044,0 -10.77198,-5.37711 -10.77198,-12.00783 z m 0,47.5414 c 0,-6.63072 4.82154,-12.00783 10.77198,-12.00783 h 161.5796 c 5.95044,0 10.77197,5.37711 10.77197,12.00783 0,6.63072 -4.82153,12.00783 -10.77197,12.00783 h -161.5796 c -5.95044,0 -10.77198,-5.3747 -10.77198,-12.00783 z m 0,100.42387 c 0,-6.63072 4.82154,-12.00782 10.77198,-12.00782 h 207.89908 c 5.95044,0 10.77198,5.3771 10.77198,12.00782 0,6.63073 -4.82154,12.00783 -10.77198,12.00783 H 129.62347 c -5.95044,0 -10.77198,-5.3747 -10.77198,-12.00783 z M 400,371.73357 c 0,6.63072 -4.82154,12.00783 -10.77197,12.00783 H 129.62347 c -5.95044,0 -10.77198,-5.37711 -10.77198,-12.00783 0,-6.63072 4.82154,-12.00783 10.77198,-12.00783 h 259.60456 c 5.95043,0 10.77197,5.37711 10.77197,12.00783 z M 112.22888,112.90001 c -5.01543,-3.56392 -11.67682,-1.91885 -14.871784,3.67439 L 79.413143,147.96527 H 10.771973 C 4.8215353,147.96527 0,153.34238 0,159.9731 v 80.0514 c 0,6.63072 4.8215353,12.00783 10.771973,12.00783 h 71.814593 c 5.950438,0 10.771974,-5.37711 10.771974,-12.00783 v -71.766 l 22.16657,-38.77808 c 3.19496,-5.59325 1.72136,-13.01649 -3.29623,-16.58041 z M 65.683185,171.97853 46.026488,206.36655 24.997442,172.7062 c -0.168043,-0.26897 -0.377019,-0.48031 -0.560143,-0.72767 z M 21.543947,209.2028 33.29617,228.01667 H 21.543947 Z m 50.270646,18.81387 H 59.198457 l 12.616136,-22.07039 z"
   id="path2"
   inkscape:connector-curvature="0"
   style="stroke-width:2.2746253" />
<g
   id="g4"
   transform="translate(0,214.33299)">
</g>
<g
   id="g6"
   transform="translate(0,214.33299)">
</g>
<g
   id="g8"
   transform="translate(0,214.33299)">
</g>
<g
   id="g10"
   transform="translate(0,214.33299)">
</g>
<g
   id="g12"
   transform="translate(0,214.33299)">
</g>
<g
   id="g14"
   transform="translate(0,214.33299)">
</g>
<g
   id="g16"
   transform="translate(0,214.33299)">
</g>
<g
   id="g18"
   transform="translate(0,214.33299)">
</g>
<g
   id="g20"
   transform="translate(0,214.33299)">
</g>
<g
   id="g22"
   transform="translate(0,214.33299)">
</g>
<g
   id="g24"
   transform="translate(0,214.33299)">
</g>
<g
   id="g26"
   transform="translate(0,214.33299)">
</g>
<g
   id="g28"
   transform="translate(0,214.33299)">
</g>
<g
   id="g30"
   transform="translate(0,214.33299)">
</g>
<g
   id="g32"
   transform="translate(0,214.33299)">
</g>
</svg>