<?xml version="1.0" encoding="UTF-8" standalone="no"?>
<!-- Generator: Adobe Illustrator 19.0.0, SVG Export Plug-In . SVG Version: 6.00 Build 0)  -->

<svg
   xmlns:dc="http://purl.org/dc/elements/1.1/"
   xmlns:cc="http://creativecommons.org/ns#"
   xmlns:rdf="http://www.w3.org/1999/02/22-rdf-syntax-ns#"
   xmlns:svg="http://www.w3.org/2000/svg"
   xmlns="http://www.w3.org/2000/svg"
   xmlns:sodipodi="http://sodipodi.sourceforge.net/DTD/sodipodi-0.dtd"
   xmlns:inkscape="http://www.inkscape.org/namespaces/inkscape"
   version="1.1"
   id="Capa_1"
   x="0px"
   y="0px"
   viewBox="0 0 400 400"
   xml:space="preserve"
   sodipodi:docname="describing.svg"
   width="400"
   height="400"
   inkscape:version="0.92.4 5da689c313, 2019-01-14"><metadata
   id="metadata79"><rdf:RDF><cc:Work
       rdf:about=""><dc:format>image/svg+xml</dc:format><dc:type
         rdf:resource="http://purl.org/dc/dcmitype/StillImage" /><dc:title></dc:title></cc:Work></rdf:RDF></metadata><defs
   id="defs77" /><sodipodi:namedview
   pagecolor="#ffffff"
   bordercolor="#666666"
   borderopacity="1"
   objecttolerance="10"
   gridtolerance="10"
   guidetolerance="10"
   inkscape:pageopacity="0"
   inkscape:pageshadow="2"
   inkscape:window-width="1533"
   inkscape:window-height="845"
   id="namedview75"
   showgrid="false"
   inkscape:zoom="1.2153625"
   inkscape:cx="256"
   inkscape:cy="256"
   inkscape:window-x="67"
   inkscape:window-y="27"
   inkscape:window-maximized="1"
   inkscape:current-layer="Capa_1" />
<g
   id="g6"
   transform="scale(0.78125076)">
	<g
   id="g4">
		<path
   d="m 389.513,87.422 c 0,-12.012 -4.688,-23.32 -13.184,-31.816 L 333.907,13.184 C 325.529,4.805 313.636,0 301.8,0 h -2.578 v 90 h 90.292 z"
   id="path2"
   inkscape:connector-curvature="0" />
	</g>
</g>
<g
   id="g12"
   transform="scale(0.78125076)">
	<g
   id="g10">
		<path
   d="m 273.937,309.537 c 2.871,-8.716 7.881,-16.831 14.414,-23.408 L 389.913,184.976 V 120 h -105.4 C 276.222,120 270,113.291 270,105 V 0 H 45 C 20.186,0 0,20.186 0,45 v 422 c 0,24.814 20.186,45 45,45 h 299.513 c 24.814,0 45.4,-20.186 45.4,-45 V 355.049 l -16.484,16.084 c -6.679,6.621 -14.501,11.44 -23.32,14.385 l -47.695,15.923 -7.266,0.396 c -12.012,0 -23.379,-5.845 -30.439,-15.63 -7.002,-9.741 -8.906,-22.368 -5.098,-33.779 z M 75,270 h 149.513 c 8.291,0 15,6.709 15,15 0,8.291 -6.709,15 -15,15 H 75 c -8.291,0 -15,-6.709 -15,-15 0,-8.291 6.709,-15 15,-15 z M 60,225 c 0,-8.291 6.709,-15 15,-15 h 149.513 c 8.291,0 15,6.709 15,15 0,8.291 -6.709,15 -15,15 H 75 c -8.291,0 -15,-6.709 -15,-15 z m 0,120 c 0,-8.291 6.709,-15 15,-15 h 149.513 c 8.291,0 15,6.709 15,15 0,8.291 -6.709,15 -15,15 H 75 c -8.291,0 -15,-6.709 -15,-15 z m 224.513,75 c 8.291,0 15,6.709 15,15 0,8.291 -6.708,15 -15,15 h -90 c -8.291,0 -15,-6.709 -15,-15 0,-8.291 6.709,-15 15,-15 z M 75,180 c -8.291,0 -15,-6.709 -15,-15 0,-8.291 6.709,-15 15,-15 h 209.513 c 8.291,0 15,6.709 15,15 0,8.291 -6.709,15 -15,15 z"
   id="path8"
   inkscape:connector-curvature="0" />
	</g>
</g>
<g
   id="g18"
   transform="scale(0.78125076)">
	<g
   id="g16">
		<path
   d="m 301.111,322.808 -13.05,39.151 c -1.956,5.865 3.625,11.444 9.49,9.485 l 39.128,-13.068 z"
   id="path14"
   inkscape:connector-curvature="0" />
	</g>
</g>
<g
   id="g24"
   transform="scale(0.78125076)">
	<g
   id="g22">
		<path
   d="m 417.609,199.307 -98.789,98.789 42.605,42.605 c 22.328,-22.332 65.773,-65.783 98.784,-98.794 z"
   id="path20"
   inkscape:connector-curvature="0" />
	</g>
</g>
<g
   id="g30"
   transform="scale(0.78125076)">
	<g
   id="g28">
		<path
   d="m 503.185,156.284 c -5.273,-5.303 -13.037,-8.335 -21.27,-8.335 -8.233,0 -15.996,3.032 -21.299,8.35 l -21.797,21.797 42.598,42.598 c 11.933,-11.934 20.181,-20.182 21.799,-21.799 11.717,-11.735 11.716,-30.849 -0.031,-42.611 z"
   id="path26"
   inkscape:connector-curvature="0" />
	</g>
</g>
<g
   id="g42"
   transform="scale(0.78125076)">
	<g
   id="g40">
		<g
   id="g38">
			<path
   d="m 503.215,198.896 c 0.001,0 0.001,-10e-4 0.002,-0.002 0.038,-0.038 0.055,-0.055 0.086,-0.086 -0.031,0.032 -0.048,0.049 -0.088,0.088 z"
   id="path32"
   inkscape:connector-curvature="0" />
			<path
   d="m 503.303,198.808 c 0.048,-0.048 0.104,-0.104 0.133,-0.133 -0.03,0.03 -0.085,0.085 -0.133,0.133 z"
   id="path34"
   inkscape:connector-curvature="0" />
			<path
   d="m 503.436,198.675 c 0.097,-0.097 0.099,-0.099 0,0 z"
   id="path36"
   inkscape:connector-curvature="0" />
		</g>
	</g>
</g>
<g
   id="g44"
   transform="translate(0,-112)">
</g>
<g
   id="g46"
   transform="translate(0,-112)">
</g>
<g
   id="g48"
   transform="translate(0,-112)">
</g>
<g
   id="g50"
   transform="translate(0,-112)">
</g>
<g
   id="g52"
   transform="translate(0,-112)">
</g>
<g
   id="g54"
   transform="translate(0,-112)">
</g>
<g
   id="g56"
   transform="translate(0,-112)">
</g>
<g
   id="g58"
   transform="translate(0,-112)">
</g>
<g
   id="g60"
   transform="translate(0,-112)">
</g>
<g
   id="g62"
   transform="translate(0,-112)">
</g>
<g
   id="g64"
   transform="translate(0,-112)">
</g>
<g
   id="g66"
   transform="translate(0,-112)">
</g>
<g
   id="g68"
   transform="translate(0,-112)">
</g>
<g
   id="g70"
   transform="translate(0,-112)">
</g>
<g
   id="g72"
   transform="translate(0,-112)">
</g>
</svg>