<?xml version="1.0" encoding="UTF-8" standalone="no"?>
<svg
   xmlns:dc="http://purl.org/dc/elements/1.1/"
   xmlns:cc="http://creativecommons.org/ns#"
   xmlns:rdf="http://www.w3.org/1999/02/22-rdf-syntax-ns#"
   xmlns:svg="http://www.w3.org/2000/svg"
   xmlns="http://www.w3.org/2000/svg"
   xmlns:sodipodi="http://sodipodi.sourceforge.net/DTD/sodipodi-0.dtd"
   xmlns:inkscape="http://www.inkscape.org/namespaces/inkscape"
   viewBox="0 0 400 400"
   version="1.1"
   id="svg8"
   sodipodi:docname="j-mpsoc-riscv.svg"
   inkscape:version="0.92.4 5da689c313, 2019-01-14"
   width="400"
   height="400">
  <metadata
     id="metadata14">
    <rdf:RDF>
      <cc:Work
         rdf:about="">
        <dc:format>image/svg+xml</dc:format>
        <dc:type
           rdf:resource="http://purl.org/dc/dcmitype/StillImage" />
        <dc:title></dc:title>
      </cc:Work>
    </rdf:RDF>
  </metadata>
  <defs
     id="defs12" />
  <sodipodi:namedview
     pagecolor="#ffffff"
     bordercolor="#666666"
     borderopacity="1"
     objecttolerance="10"
     gridtolerance="10"
     guidetolerance="10"
     inkscape:pageopacity="0"
     inkscape:pageshadow="2"
     inkscape:window-width="1533"
     inkscape:window-height="845"
     id="namedview10"
     showgrid="false"
     inkscape:zoom="0.5"
     inkscape:cx="288.63923"
     inkscape:cy="247.32203"
     inkscape:window-x="67"
     inkscape:window-y="27"
     inkscape:window-maximized="1"
     inkscape:current-layer="g6" />
  <path
     d="M 0,0 H 400 V 400 H 0 Z"
     id="path2"
     inkscape:connector-curvature="0"
     style="fill:#7c2828;fill-opacity:0;stroke-width:0.78125" />
  <g
     class=""
     id="g6"
     transform="translate(0,-112)">
    <path
       d="m 175.59576,112.00177 v 101.41421 h 15.63379 V 112 h -15.6329 z m -95.683723,0.55405 c -13.706857,0 -24.832687,11.17513 -24.832687,24.94379 0,13.76867 11.12583,24.91715 24.832687,24.91715 11.185935,0 20.630563,-7.43351 23.727803,-17.64701 h 39.72045 v 68.64623 h 15.63468 V 129.06545 H 103.2792 C 99.84254,119.44327 90.67281,112.55672 79.912037,112.55672 Z m 170.816433,0 c -13.70685,0 -24.80528,11.17513 -24.80528,24.94379 0,10.76491 6.78581,19.93336 16.29938,23.41926 v 52.49623 h 15.6055 v -52.02476 c 10.24988,-3.06502 17.73397,-12.60197 17.73397,-23.88984 0,-13.76955 -11.12582,-24.94468 -24.83267,-24.94468 z m -42.18039,52.96859 v 47.89157 h 15.60729 v -47.89157 h -15.60551 z m 166.64613,3.57824 c -13.70685,0 -24.83269,11.17689 -24.83269,24.94556 0,11.6164 7.90927,21.37531 18.61789,24.14024 v 24.38884 h -82.14922 v 15.67766 h 97.78213 v -41.14709 c 9.03626,-3.72207 15.3863,-12.63748 15.3863,-23.05876 0,-13.76867 -11.09932,-24.94468 -24.80617,-24.94468 z M 0,193.18872 v 15.70518 h 58.835985 v 49.36193 H 114.35818 V 242.5764 H 74.470661 V 193.18784 H 8.8363143e-4 Z m 129.96368,35.93333 V 370.93572 H 271.22203 V 229.12028 H 129.96457 Z M 20.274342,276.40097 v 79.8835 c -10.156176,3.11831 -17.5403954,12.60642 -17.5403954,23.8348 0,13.7669 11.0993114,24.94378 24.8061704,24.94378 13.706859,0 24.831803,-11.17599 24.831803,-24.94289 0,-10.82795 -6.885691,-20.03459 -16.490304,-23.47431 V 292.07774 H 114.35729 V 276.40186 H 20.274342 Z m 266.555848,0 v 15.67677 h 47.70309 v -15.67588 h -47.70486 z m 88.36314,19.50717 c -9.63289,0 -17.98059,5.51386 -22.09786,13.56711 h -66.26705 l 0.002,15.70519 h 63.91849 c 2.0551,11.69187 12.21923,20.58774 24.44553,20.58774 13.70686,0 24.80529,-11.17689 24.80529,-24.94467 0,-13.76867 -11.09932,-24.91626 -24.80617,-24.91626 z M 66.65244,309.47525 v 15.70519 h 47.70485 v -15.70519 z m 15.164433,32.38173 v 74.77631 c -10.163246,3.11919 -17.567796,12.60818 -17.567796,23.83479 0,13.76779 11.125829,24.94467 24.832688,24.94467 13.705975,0 24.802645,-11.17688 24.802645,-24.94467 0,-10.82706 -6.86449,-20.03458 -16.462025,-23.47342 v -59.43605 h 16.932265 v -15.7034 H 81.817758 Z m 205.013317,0 v 15.70341 h 39.91403 v 84.60181 c -10.00856,3.21775 -17.26285,12.66145 -17.26285,23.77797 -0.002,13.76778 11.12406,24.91714 24.83093,24.91714 13.70685,0 24.80528,-11.14936 24.80528,-24.91625 0,-10.93893 -7.01385,-20.2246 -16.76786,-23.5853 V 341.85698 h -55.52219 z m -143.4699,44.78125 v 47.97592 h 15.63468 v -47.97592 z m 32.23636,0 v 76.86021 c -9.73455,3.3687 -16.74134,12.63749 -16.74134,23.556 0,13.76778 11.12672,24.94556 24.83357,24.94556 13.70686,0 24.80529,-11.17867 24.80529,-24.94556 0,-11.12539 -7.25076,-20.54602 -17.26462,-23.75134 v -76.66487 z m 32.95233,0 v 47.97592 h 15.63467 l -0.0283,-47.97503 h -15.60551 z m 33.67182,0 v 124.36288 h 15.60551 V 386.63823 h -15.60462 z"
       id="path4"
       inkscape:connector-curvature="0"
       style="fill:#000000;fill-opacity:1;stroke-width:0.88590509"
       sodipodi:nodetypes="cccccccssccccccccssccccssscccccccsccccccsccccccccccccccccccccssscccccccccccccccccsscccccccccssscccccccccccsscccccccccccsssccccccacccccccc" />
  </g>
</svg>
