<?xml version="1.0" encoding="UTF-8" standalone="no"?>
<svg
   xmlns:dc="http://purl.org/dc/elements/1.1/"
   xmlns:cc="http://creativecommons.org/ns#"
   xmlns:rdf="http://www.w3.org/1999/02/22-rdf-syntax-ns#"
   xmlns:svg="http://www.w3.org/2000/svg"
   xmlns="http://www.w3.org/2000/svg"
   xmlns:sodipodi="http://sodipodi.sourceforge.net/DTD/sodipodi-0.dtd"
   xmlns:inkscape="http://www.inkscape.org/namespaces/inkscape"
   height="300pt"
   viewBox="0 -40 300 299.41406"
   width="300pt"
   version="1.1"
   id="svg8"
   sodipodi:docname="formal-verification.svg"
   inkscape:version="0.92.4 5da689c313, 2019-01-14">
  <metadata
     id="metadata14">
    <rdf:RDF>
      <cc:Work
         rdf:about="">
        <dc:format>image/svg+xml</dc:format>
        <dc:type
           rdf:resource="http://purl.org/dc/dcmitype/StillImage" />
        <dc:title></dc:title>
      </cc:Work>
    </rdf:RDF>
  </metadata>
  <defs
     id="defs12" />
  <sodipodi:namedview
     pagecolor="#ffffff"
     bordercolor="#666666"
     borderopacity="1"
     objecttolerance="10"
     gridtolerance="10"
     guidetolerance="10"
     inkscape:pageopacity="0"
     inkscape:pageshadow="2"
     inkscape:window-width="1533"
     inkscape:window-height="845"
     id="namedview10"
     showgrid="false"
     fit-margin-top="0"
     fit-margin-left="0"
     fit-margin-right="0"
     fit-margin-bottom="0"
     inkscape:zoom="0.91422272"
     inkscape:cx="375.91058"
     inkscape:cy="236.04353"
     inkscape:window-x="67"
     inkscape:window-y="27"
     inkscape:window-maximized="1"
     inkscape:current-layer="svg8" />
  <path
     d="M 0,-40.29297 V 141.32767 H 299.99999 V -40.29297 Z m 194.56787,101.2486 h -18.18695 v 5.02886 c 0,4.83043 -0.92697,9.41349 -2.57951,13.50453 l 13.92746,16.54087 -12.43057,14.76038 -13.92746,-16.53815 c -3.44467,1.96261 -7.30133,3.06353 -11.37084,3.06353 -4.06952,0 -7.92618,-1.10092 -11.37085,-3.06353 l -13.92746,16.53815 -12.43058,-14.76038 13.92747,-16.54087 c -1.65253,-4.09104 -2.57951,-8.67139 -2.57951,-13.50453 V 60.95563 H 105.43213 V 40.07907 h 18.18694 v -5.02614 c 0,-4.83314 0.92698,-9.41348 2.57951,-13.50724 L 112.27111,5.00482 124.70169,-9.75556 138.62915,6.78531 C 142.07382,4.82269 145.93048,3.71906 150,3.71906 c 4.06951,0 7.92617,1.10363 11.37084,3.06625 L 175.2983,-9.75556 187.72887,5.00482 173.80141,21.54569 c 1.65254,4.09376 2.57951,8.6741 2.57951,13.50724 v 5.02614 h 18.18695 z m 0,0"
     id="path2"
     inkscape:connector-curvature="0"
     style="stroke-width:0.63854939" />
  <path
     d="m 158.80279,35.05293 c 0,-5.76552 -3.94821,-10.45459 -8.80279,-10.45459 -4.85459,0 -8.8028,4.68907 -8.8028,10.45459 v 30.92885 c 0,5.76551 3.94821,10.45458 8.8028,10.45458 4.85458,0 8.80279,-4.68907 8.80279,-10.45458 z m 0,0"
     id="path4"
     inkscape:connector-curvature="0"
     style="stroke-width:0.63854939" />
  <path
     d="m 0,217.91856 h 94.299314 v 20.9119 H 76.698302 v 20.87656 H 223.30169 v -20.87656 h -17.60101 v -20.9119 h 94.29931 V 162.20424 H 0 Z m 0,0"
     id="path6"
     inkscape:connector-curvature="0"
     style="stroke-width:0.63854939" />
</svg>
