<?xml version="1.0" encoding="UTF-8" standalone="no"?>
<svg
   xmlns:dc="http://purl.org/dc/elements/1.1/"
   xmlns:cc="http://creativecommons.org/ns#"
   xmlns:rdf="http://www.w3.org/1999/02/22-rdf-syntax-ns#"
   xmlns:svg="http://www.w3.org/2000/svg"
   xmlns="http://www.w3.org/2000/svg"
   xmlns:sodipodi="http://sodipodi.sourceforge.net/DTD/sodipodi-0.dtd"
   xmlns:inkscape="http://www.inkscape.org/namespaces/inkscape"
   height="75pt"
   viewBox="0 -40 100 74.853516"
   width="100pt"
   version="1.1"
   id="svg8"
   sodipodi:docname="formal-verification-o.svg"
   inkscape:version="0.92.4 5da689c313, 2019-01-14">
  <metadata
     id="metadata14">
    <rdf:RDF>
      <cc:Work
         rdf:about="">
        <dc:format>image/svg+xml</dc:format>
        <dc:type
           rdf:resource="http://purl.org/dc/dcmitype/StillImage" />
        <dc:title></dc:title>
      </cc:Work>
    </rdf:RDF>
  </metadata>
  <defs
     id="defs12" />
  <sodipodi:namedview
     pagecolor="#ffffff"
     bordercolor="#666666"
     borderopacity="1"
     objecttolerance="10"
     gridtolerance="10"
     guidetolerance="10"
     inkscape:pageopacity="0"
     inkscape:pageshadow="2"
     inkscape:window-width="1533"
     inkscape:window-height="845"
     id="namedview10"
     showgrid="false"
     fit-margin-top="0"
     fit-margin-left="0"
     fit-margin-right="0"
     fit-margin-bottom="0"
     inkscape:zoom="0.5"
     inkscape:cx="-267.91208"
     inkscape:cy="236.04352"
     inkscape:window-x="67"
     inkscape:window-y="27"
     inkscape:window-maximized="1"
     inkscape:current-layer="svg8" />
  <path
     d="m 0,-40.036621 v 45.40516 h 75 v -45.40516 z m 48.64197,25.31216 h -4.546738 v 1.2572 c 0,1.20762 -0.231744,2.35338 -0.644878,3.37614 l 3.481866,4.13522 -3.107644,3.6901 -3.481864,-4.13454 c -0.861168,0.49064 -1.825334,0.76588 -2.84271,0.76588 -1.01738,0 -1.981546,-0.27524 -2.842714,-0.76588 l -3.481864,4.13454 -3.107646,-3.6901 3.481868,-4.13522 c -0.413132,-1.02276 -0.644878,-2.16784 -0.644878,-3.37614 v -1.2572 h -4.546734 v -5.21914 h 4.546734 v -1.25654 c 0,-1.20828 0.231746,-2.35338 0.644878,-3.37682 l -3.481868,-4.13522 3.107646,-3.69008 3.481864,4.13522 c 0.861168,-0.49066 1.825334,-0.76658 2.842714,-0.76658 1.017376,0 1.981542,0.27592 2.84271,0.76658 l 3.481864,-4.13522 3.107644,3.69008 -3.481866,4.13522 c 0.413134,1.02344 0.644878,2.16854 0.644878,3.37682 v 1.25654 h 4.546738 z m 0,0"
     id="path2"
     inkscape:connector-curvature="0"
     style="fill:#ff5e15;fill-opacity:1;stroke-width:0.15963736" />
  <path
     d="m 39.700698,-21.200141 c 0,-1.44138 -0.987052,-2.61366 -2.200696,-2.61366 -1.213648,0 -2.2007,1.17228 -2.2007,2.61366 v 7.7322 c 0,1.44138 0.987052,2.61366 2.2007,2.61366 1.213644,0 2.200696,-1.17228 2.200696,-2.61366 z m 0,0"
     id="path4"
     inkscape:connector-curvature="0"
     style="fill:#ff5e15;fill-opacity:1;stroke-width:0.15963736" />
  <path
     d="m 0,24.516259 h 23.57483 v 5.22798 h -4.400254 v 5.21914 h 36.650848 v -5.21914 h -4.400252 v -5.22798 H 75 V 10.587679 H 0 Z m 0,0"
     id="path6"
     inkscape:connector-curvature="0"
     style="fill:#ff5e15;fill-opacity:1;stroke-width:0.15963736" />
</svg>
