<?xml version="1.0" encoding="UTF-8" standalone="no"?>
<svg
   xmlns:dc="http://purl.org/dc/elements/1.1/"
   xmlns:cc="http://creativecommons.org/ns#"
   xmlns:rdf="http://www.w3.org/1999/02/22-rdf-syntax-ns#"
   xmlns:svg="http://www.w3.org/2000/svg"
   xmlns="http://www.w3.org/2000/svg"
   xmlns:sodipodi="http://sodipodi.sourceforge.net/DTD/sodipodi-0.dtd"
   xmlns:inkscape="http://www.inkscape.org/namespaces/inkscape"
   height="75pt"
   viewBox="0 0 100 75"
   width="100pt"
   version="1.1"
   id="svg20"
   sodipodi:docname="hdl-o.svg"
   inkscape:version="0.92.4 5da689c313, 2019-01-14">
  <metadata
     id="metadata26">
    <rdf:RDF>
      <cc:Work
         rdf:about="">
        <dc:format>image/svg+xml</dc:format>
        <dc:type
           rdf:resource="http://purl.org/dc/dcmitype/StillImage" />
        <dc:title></dc:title>
      </cc:Work>
    </rdf:RDF>
  </metadata>
  <defs
     id="defs24" />
  <sodipodi:namedview
     pagecolor="#ffffff"
     bordercolor="#666666"
     borderopacity="1"
     objecttolerance="10"
     gridtolerance="10"
     guidetolerance="10"
     inkscape:pageopacity="0"
     inkscape:pageshadow="2"
     inkscape:window-width="1533"
     inkscape:window-height="845"
     id="namedview22"
     showgrid="false"
     fit-margin-top="0"
     fit-margin-left="0"
     fit-margin-right="0"
     fit-margin-bottom="0"
     inkscape:zoom="0.5"
     inkscape:cx="173.25807"
     inkscape:cy="287.06499"
     inkscape:window-x="67"
     inkscape:window-y="27"
     inkscape:window-maximized="1"
     inkscape:current-layer="svg20" />
  <path
     d="m 42.857144,56.25 h 13.392857 v 8.03572 H 42.857144 Z m 0,0"
     id="path2"
     inkscape:connector-curvature="0"
     style="stroke-width:0.16741072;fill:#ff5e15;fill-opacity:1" />
  <path
     d="m 43.547059,39.02958 c -0.1903,0.1818 -0.430298,0.30213 -0.689915,0.34529 v 0.8037 h 6.696427 v -3.53982 c -0.87956,-0.28381 -1.734923,-0.6376 -2.558245,-1.05809 z m 0,0"
     id="path4"
     inkscape:connector-curvature="0"
     style="stroke-width:0.16741072;fill:#ff5e15;fill-opacity:1" />
  <path
     d="m 60.267858,36.63875 v 4.87911 c 0,0.73961 -0.59967,1.33928 -1.339287,1.33928 h -8.035713 v 10.71429 h 6.696428 c 0.739615,0 1.339285,0.59967 1.339285,1.33928 V 65.625 c 0,0.73962 -0.59967,1.33929 -1.339285,1.33929 h -16.07143 c -0.739615,0 -1.339285,-0.59967 -1.339285,-1.33929 V 61.60714 H 29.464287 V 65.625 c 0,0.73962 -0.59967,1.33929 -1.339288,1.33929 H 12.053571 c -0.739615,0 -1.339285,-0.59967 -1.339285,-1.33929 V 54.91071 c 0,-0.73961 0.59967,-1.33928 1.339285,-1.33928 h 16.071428 c 0.739618,0 1.339288,0.59967 1.339288,1.33928 v 4.01786 h 10.714284 v -4.01786 c 0,-0.73961 0.59967,-1.33928 1.339285,-1.33928 h 6.69643 V 42.85714 h -6.69643 c -0.739615,0 -1.339285,-0.59967 -1.339285,-1.33928 v -3.96293 l -0.05493,-0.0549 H 29.464287 v 4.01786 c 0,0.73961 -0.59967,1.33928 -1.339288,1.33928 H 12.053571 c -0.739615,0 -1.339285,-0.59967 -1.339285,-1.33928 V 30.8036 c 0,-0.73961 0.59967,-1.33928 1.339285,-1.33928 h 16.071428 c 0.739618,0 1.339288,0.59967 1.339288,1.33928 v 4.01786 h 7.979474 l -1.473345,-1.47335 c -0.522505,-0.52315 -0.522505,-1.37067 0,-1.89383 l 3.45023,-3.44958 C 38.998849,27.18204 38.644409,26.32667 38.361249,25.44646 H 8.0357142 v 40.17857 c 0,0.73962 -0.5996702,1.33929 -1.3392857,1.33929 H 4.0178571 C 1.7990113,66.96429 0,68.7633 0,70.98214 0,73.20099 1.7990113,75 4.0178571,75 H 62.946428 V 35.70164 l -0.120325,-0.12098 c -0.823323,0.42049 -1.678685,0.77428 -2.558245,1.05809 z m 0,0"
     id="path6"
     inkscape:connector-curvature="0"
     style="stroke-width:0.16741072;fill:#ff5e15;fill-opacity:1" />
  <path
     d="M 5.3571428,64.28572 V 14.73214 H 4.0178571 C 1.7990113,14.73214 0,16.53115 0,18.75 v 46.875 c 1.1581421,-0.87106 2.5687082,-1.34125 4.0178571,-1.33928 z m 0,0"
     id="path8"
     inkscape:connector-curvature="0"
     style="stroke-width:0.16741072;fill:#ff5e15;fill-opacity:1" />
  <path
     d="m 13.392857,56.25 h 13.392857 v 8.03572 H 13.392857 Z m 0,0"
     id="path10"
     inkscape:connector-curvature="0"
     style="stroke-width:0.16741072;fill:#ff5e15;fill-opacity:1" />
  <path
     d="m 13.392857,32.14286 h 13.392857 v 8.03571 H 13.392857 Z m 0,0"
     id="path12"
     inkscape:connector-curvature="0"
     style="stroke-width:0.16741072;fill:#ff5e15;fill-opacity:1" />
  <path
     d="m 54.910713,10.71428 c -5.17796,0 -9.375,4.19704 -9.375,9.37501 0,5.17796 4.19704,9.375 9.375,9.375 5.177962,0 9.375002,-4.19704 9.375002,-9.375 -0.0065,-5.1747 -4.20031,-9.36847 -9.375002,-9.37501 z m 0,14.73215 c -2.95846,0 -5.357142,-2.39868 -5.357142,-5.35714 0,-2.95847 2.398682,-5.35715 5.357142,-5.35715 2.958463,0 5.357145,2.39868 5.357145,5.35715 0,2.95846 -2.398682,5.35714 -5.357145,5.35714 z m 0,0"
     id="path14"
     inkscape:connector-curvature="0"
     style="stroke-width:0.16741072;fill:#ff5e15;fill-opacity:1" />
  <path
     d="m 57.589286,20.08929 c 0,1.47923 -1.19934,2.67857 -2.678573,2.67857 -1.47923,0 -2.67857,-1.19934 -2.67857,-2.67857 0,-1.47924 1.19934,-2.67858 2.67857,-2.67858 1.479233,0 2.678573,1.19934 2.678573,2.67858 z m 0,0"
     id="path16"
     inkscape:connector-curvature="0"
     style="stroke-width:0.16741072;fill:#ff5e15;fill-opacity:1" />
  <path
     d="m 69.158283,23.77232 c 0.15237,-0.59117 0.685337,-1.00446 1.296125,-1.00446 H 75 v -5.35715 h -4.545592 c -0.610788,0 -1.143755,-0.41329 -1.296125,-1.00446 -0.342015,-1.32948 -0.869753,-2.60402 -1.567515,-3.78636 -0.310625,-0.52643 -0.225613,-1.19607 0.206647,-1.62833 L 71.01157,7.7774 67.221288,3.98974 64.007133,7.20389 C 63.574873,7.63615 62.904575,7.72116 62.3788,7.41054 61.196463,6.71278 59.921918,6.18504 58.592443,5.84303 58.001273,5.69 57.588633,5.15638 57.589286,4.54559 V 0 h -5.357143 v 4.54559 c 0,0.61079 -0.413295,1.14376 -1.004465,1.29613 -1.329475,0.34201 -2.60402,0.86975 -3.78636,1.56751 -0.526427,0.31063 -1.19607,0.22561 -1.62833,-0.20665 l -3.214154,-3.21415 -3.787668,3.79028 3.214155,3.21416 c 0.43226,0.43226 0.517273,1.10255 0.206648,1.62833 -0.697763,1.18234 -1.2255,2.45688 -1.567513,3.78636 -0.15237,0.59117 -0.68534,1.00446 -1.296127,1.00446 h -4.5469 v 5.35714 h 4.545592 c 0.610788,0 1.143755,0.4133 1.296125,1.00447 0.342015,1.32948 0.869753,2.60402 1.567515,3.78636 0.310625,0.52643 0.225613,1.19607 -0.206647,1.62833 l -3.214155,3.21415 2.422877,2.41896 h 0.28512 v 0.28512 l 1.054165,1.05416 h 0.05493 l 3.186034,-3.18472 c 0.43226,-0.43226 1.101903,-0.51728 1.62833,-0.20665 1.18234,0.69776 2.456885,1.2255 3.78636,1.56751 0.59117,0.15237 1.004465,0.68534 1.004465,1.29613 v 4.54559 h 5.357143 v -4.54559 c 0,-0.61079 0.413295,-1.14376 1.004465,-1.29613 1.329475,-0.34201 2.604019,-0.86975 3.786359,-1.56751 0.526428,-0.31063 1.19607,-0.22561 1.62833,0.20665 l 3.214155,3.21415 3.788975,-3.78897 -3.214155,-3.21416 c -0.43226,-0.43226 -0.517272,-1.1019 -0.206647,-1.62833 0.697762,-1.18234 1.2255,-2.45688 1.567515,-3.78636 z m -14.24757,8.37054 c -6.65719,0 -12.053569,-5.39638 -12.053569,-12.05357 0,-6.6572 5.396379,-12.05358 12.053569,-12.05358 6.657192,0 12.053572,5.39638 12.053572,12.05358 -0.0072,6.65392 -5.39965,12.04637 -12.053572,12.05357 z m 0,0"
     id="path18"
     inkscape:connector-curvature="0"
     style="stroke-width:0.16741072;fill:#ff5e15;fill-opacity:1" />
</svg>
