<?xml version="1.0" encoding="UTF-8" standalone="no"?>
<svg
   xmlns:dc="http://purl.org/dc/elements/1.1/"
   xmlns:cc="http://creativecommons.org/ns#"
   xmlns:rdf="http://www.w3.org/1999/02/22-rdf-syntax-ns#"
   xmlns:svg="http://www.w3.org/2000/svg"
   xmlns="http://www.w3.org/2000/svg"
   xmlns:sodipodi="http://sodipodi.sourceforge.net/DTD/sodipodi-0.dtd"
   xmlns:inkscape="http://www.inkscape.org/namespaces/inkscape"
   height="300pt"
   viewBox="0 0 300 300"
   width="300pt"
   version="1.1"
   id="svg20"
   sodipodi:docname="hdl.svg"
   inkscape:version="0.92.4 5da689c313, 2019-01-14">
  <metadata
     id="metadata26">
    <rdf:RDF>
      <cc:Work
         rdf:about="">
        <dc:format>image/svg+xml</dc:format>
        <dc:type
           rdf:resource="http://purl.org/dc/dcmitype/StillImage" />
        <dc:title></dc:title>
      </cc:Work>
    </rdf:RDF>
  </metadata>
  <defs
     id="defs24" />
  <sodipodi:namedview
     pagecolor="#ffffff"
     bordercolor="#666666"
     borderopacity="1"
     objecttolerance="10"
     gridtolerance="10"
     guidetolerance="10"
     inkscape:pageopacity="0"
     inkscape:pageshadow="2"
     inkscape:window-width="1533"
     inkscape:window-height="845"
     id="namedview22"
     showgrid="false"
     fit-margin-top="0"
     fit-margin-left="0"
     fit-margin-right="0"
     fit-margin-bottom="0"
     inkscape:zoom="1.0417393"
     inkscape:cx="298.66667"
     inkscape:cy="287.06498"
     inkscape:window-x="67"
     inkscape:window-y="27"
     inkscape:window-maximized="1"
     inkscape:current-layer="svg20" />
  <path
     d="m 171.42858,225.00001 h 53.57143 v 32.14286 h -53.57143 z m 0,0"
     id="path2"
     inkscape:connector-curvature="0"
     style="stroke-width:0.66964287" />
  <path
     d="m 174.18824,156.11834 c -0.7612,0.7272 -1.72119,1.2085 -2.75966,1.38114 v 3.21481 h 26.78571 v -14.15928 c -3.51824,-1.13526 -6.93969,-2.5504 -10.23298,-4.23235 z m 0,0"
     id="path4"
     inkscape:connector-curvature="0"
     style="stroke-width:0.66964287" />
  <path
     d="m 241.07144,146.55501 v 19.51642 c 0,2.95847 -2.39868,5.35715 -5.35715,5.35715 h -32.14285 v 42.85714 h 26.78571 c 2.95846,0 5.35714,2.39868 5.35714,5.35714 v 42.85715 c 0,2.95846 -2.39868,5.35714 -5.35714,5.35714 h -64.28572 c -2.95846,0 -5.35714,-2.39868 -5.35714,-5.35714 v -16.07143 h -42.85714 v 16.07143 c 0,2.95846 -2.39868,5.35714 -5.35715,5.35714 H 48.214287 c -2.958461,0 -5.357143,-2.39868 -5.357143,-5.35714 v -42.85715 c 0,-2.95846 2.398682,-5.35714 5.357143,-5.35714 H 112.5 c 2.95847,0 5.35715,2.39868 5.35715,5.35714 v 16.07143 h 42.85714 v -16.07143 c 0,-2.95846 2.39868,-5.35714 5.35714,-5.35714 h 26.78572 v -42.85714 h -26.78572 c -2.95846,0 -5.35714,-2.39868 -5.35714,-5.35715 v -15.8517 L 160.49456,150 h -42.63741 v 16.07143 c 0,2.95847 -2.39868,5.35715 -5.35715,5.35715 H 48.214287 c -2.958461,0 -5.357143,-2.39868 -5.357143,-5.35715 v -42.85714 c 0,-2.95846 2.398682,-5.35714 5.357143,-5.35714 H 112.5 c 2.95847,0 5.35715,2.39868 5.35715,5.35714 v 16.07143 h 31.9179 l -5.89338,-5.89338 c -2.09002,-2.09263 -2.09002,-5.4827 0,-7.57534 l 13.80092,-13.7983 c -1.68719,-3.29067 -3.10495,-6.71213 -4.23759,-10.23298 H 32.142858 v 160.71429 c 0,2.95846 -2.398681,5.35714 -5.357143,5.35714 H 16.071429 C 7.1960453,267.85715 0,275.05319 0,283.92858 c 0,8.87539 7.1960453,16.07143 16.071429,16.07143 H 251.78572 V 142.80657 l -0.4813,-0.48391 c -3.29329,1.68195 -6.71474,3.09709 -10.23298,4.23235 z m 0,0"
     id="path6"
     inkscape:connector-curvature="0"
     style="stroke-width:0.66964287" />
  <path
     d="M 21.428572,257.14287 V 58.92857 H 16.071429 C 7.1960453,58.92857 0,66.12462 0,75 v 187.50001 c 4.6325687,-3.48424 10.274833,-5.36499 16.071429,-5.35714 z m 0,0"
     id="path8"
     inkscape:connector-curvature="0"
     style="stroke-width:0.66964287" />
  <path
     d="m 53.57143,225.00001 h 53.57143 v 32.14286 H 53.57143 Z m 0,0"
     id="path10"
     inkscape:connector-curvature="0"
     style="stroke-width:0.66964287" />
  <path
     d="m 53.57143,128.57143 h 53.57143 v 32.14286 H 53.57143 Z m 0,0"
     id="path12"
     inkscape:connector-curvature="0"
     style="stroke-width:0.66964287" />
  <path
     d="m 219.64286,42.85714 c -20.71184,0 -37.5,16.78816 -37.5,37.50001 0,20.71184 16.78816,37.5 37.5,37.5 20.71185,0 37.50001,-16.78816 37.50001,-37.5 -0.0262,-20.69877 -16.80124,-37.47385 -37.50001,-37.50001 z m 0,58.92858 c -11.83384,0 -21.42857,-9.59473 -21.42857,-21.42857 0,-11.83385 9.59473,-21.42858 21.42857,-21.42858 11.83385,0 21.42858,9.59473 21.42858,21.42858 0,11.83384 -9.59473,21.42857 -21.42858,21.42857 z m 0,0"
     id="path14"
     inkscape:connector-curvature="0"
     style="stroke-width:0.66964287" />
  <path
     d="m 230.35715,80.35715 c 0,5.91692 -4.79736,10.71428 -10.71429,10.71428 -5.91692,0 -10.71428,-4.79736 -10.71428,-10.71428 0,-5.91693 4.79736,-10.71429 10.71428,-10.71429 5.91693,0 10.71429,4.79736 10.71429,10.71429 z m 0,0"
     id="path16"
     inkscape:connector-curvature="0"
     style="stroke-width:0.66964287" />
  <path
     d="m 276.63314,95.08929 c 0.60948,-2.36468 2.74135,-4.01786 5.1845,-4.01786 h 18.18237 V 69.64286 h -18.18237 c -2.44315,0 -4.57502,-1.65318 -5.1845,-4.01786 -1.36806,-5.3179 -3.47901,-10.41608 -6.27006,-15.14544 -1.2425,-2.10571 -0.90245,-4.78428 0.82659,-6.51332 L 284.04629,31.10962 268.88516,15.95895 256.02854,28.81557 c -1.72904,1.72904 -4.41023,2.06909 -6.51333,0.82659 -4.72935,-2.79105 -9.82753,-4.902 -15.14543,-6.27005 -2.36468,-0.6121 -4.01524,-2.74659 -4.01263,-5.18974 V 0 h -21.42857 v 18.18237 c 0,2.44315 -1.65318,4.57502 -4.01786,5.1845 -5.3179,1.36806 -10.41608,3.47901 -15.14544,6.27006 -2.10571,1.2425 -4.78428,0.90245 -6.51332,-0.82659 l -12.85662,-12.85662 -15.15067,15.16113 12.85662,12.85662 c 1.72904,1.72904 2.06909,4.41023 0.82659,6.51333 -2.79105,4.72935 -4.902,9.82753 -6.27005,15.14543 -0.60948,2.36468 -2.74136,4.01786 -5.18451,4.01786 h -18.1876 v 21.42857 h 18.18237 c 2.44315,0 4.57502,1.65318 5.1845,4.01786 1.36806,5.31791 3.47901,10.41609 6.27006,15.14544 1.2425,2.10571 0.90245,4.78428 -0.82659,6.51332 l -12.85662,12.85662 9.69151,9.67582 h 1.14048 v 1.14048 l 4.21666,4.21666 h 0.21973 l 12.74414,-12.73891 c 1.72904,-1.72904 4.40761,-2.06909 6.51332,-0.82659 4.72936,2.79106 9.82754,4.902 15.14544,6.27006 2.36468,0.60947 4.01786,2.74135 4.01786,5.1845 v 18.18237 h 21.42857 v -18.18237 c 0,-2.44315 1.65318,-4.57503 4.01786,-5.1845 5.3179,-1.36806 10.41608,-3.479 15.14544,-6.27006 2.10571,-1.2425 4.78428,-0.90245 6.51332,0.82659 l 12.85662,12.85662 15.1559,-15.1559 -12.85662,-12.85662 c -1.72904,-1.72904 -2.06909,-4.40761 -0.82659,-6.51332 2.79105,-4.72935 4.902,-9.82753 6.27006,-15.14544 z m -56.99028,33.48214 c -26.62876,0 -48.21428,-21.58552 -48.21428,-48.21428 0,-26.62877 21.58552,-48.21429 48.21428,-48.21429 26.62877,0 48.21429,21.58552 48.21429,48.21429 -0.0288,26.61568 -21.5986,48.18551 -48.21429,48.21428 z m 0,0"
     id="path18"
     inkscape:connector-curvature="0"
     style="stroke-width:0.66964287" />
</svg>
