<?xml version="1.0" encoding="UTF-8" standalone="no"?>
<svg
   xmlns:dc="http://purl.org/dc/elements/1.1/"
   xmlns:cc="http://creativecommons.org/ns#"
   xmlns:rdf="http://www.w3.org/1999/02/22-rdf-syntax-ns#"
   xmlns:svg="http://www.w3.org/2000/svg"
   xmlns="http://www.w3.org/2000/svg"
   xmlns:sodipodi="http://sodipodi.sourceforge.net/DTD/sodipodi-0.dtd"
   xmlns:inkscape="http://www.inkscape.org/namespaces/inkscape"
   id="svg"
   width="400"
   height="400"
   viewBox="0 0 400 400"
   version="1.1"
   sodipodi:docname="hurd.svg"
   inkscape:version="0.92.5 (2060ec1f9f, 2020-04-08)">
  <metadata
     id="metadata9">
    <rdf:RDF>
      <cc:Work
         rdf:about="">
        <dc:format>image/svg+xml</dc:format>
        <dc:type
           rdf:resource="http://purl.org/dc/dcmitype/StillImage" />
        <dc:title></dc:title>
      </cc:Work>
    </rdf:RDF>
  </metadata>
  <defs
     id="defs7" />
  <sodipodi:namedview
     pagecolor="#ffffff"
     bordercolor="#666666"
     borderopacity="1"
     objecttolerance="10"
     gridtolerance="10"
     guidetolerance="10"
     inkscape:pageopacity="0"
     inkscape:pageshadow="2"
     inkscape:window-width="1533"
     inkscape:window-height="845"
     id="namedview5"
     showgrid="false"
     fit-margin-top="0"
     fit-margin-left="0"
     fit-margin-right="0"
     fit-margin-bottom="0"
     inkscape:zoom="2.2098192"
     inkscape:cx="-8.1836373"
     inkscape:cy="149.86922"
     inkscape:window-x="67"
     inkscape:window-y="27"
     inkscape:window-maximized="1"
     inkscape:current-layer="svg" />
  <g
     id="svgg"
     transform="matrix(1.073622,0,0,1.074685,-14.493897,-14.508247)"
     style="fill:#d70f51;fill-opacity:1">
    <path
       id="path0"
       d="M 133.5,33.75 V 54 h -2.947 c -1.621,0 -5.277,0.232 -8.125,0.515 -46.648,4.638 -68.817,26.657 -68.924,68.456 l -0.004,1.721 -5.375,-5.285 c -6.667,-6.555 -9.411,-7.313 -12.779,-3.53 -2.996,3.366 -2.05,6.148 4.236,12.455 l 5.15,5.168 H 29.116 13.5 V 179.75 226 h 15.577 15.578 l -5.047,5.187 c -6.539,6.721 -7.432,10.028 -3.627,13.438 3.335,2.988 5.952,2.058 12.566,-4.468 l 4.797,-4.733 0.326,4.913 c 0.178,2.702 0.326,7.187 0.327,9.965 0.008,14.977 3.159,37.396 7.294,51.898 15.997,56.098 54.702,83.439 118.209,83.502 60.226,0.06 99.155,-28.104 116.018,-83.936 1.548,-5.124 0.96,-4.638 8.482,-7.027 35.035,-11.13 59.791,-32.185 72.223,-61.427 14.29,-33.613 12.88,-84.187 -3.268,-117.146 -19.181,-39.147 -65.093,-62.138 -124.153,-62.17 -3.603,-0.002 -8.081,-0.147 -9.949,-0.324 l -3.397,-0.321 4.985,-5.065 c 6.302,-6.404 7.197,-9.64 3.568,-12.911 -3.442,-3.103 -6.431,-2.069 -13.134,4.545 L 226,44.731 V 29.116 13.5 H 179.75 133.5 V 33.75 M 214,60 V 94 H 180 146 V 60 26 h 34 34 v 34 m 36.044,6.494 c 78.569,3.052 117.717,34.982 122.996,100.32 4.243,52.519 -15.377,90.464 -56.694,109.644 -5.688,2.641 -15.232,6.323 -15.553,6.001 -0.115,-0.115 0.431,-4.034 1.214,-8.709 2.096,-12.533 3.984,-33.399 3.991,-44.125 L 306,226 h 20 20 V 179.75 133.5 H 299.75 253.5 v 15.596 15.596 l -5.375,-5.273 c -6.643,-6.517 -10.239,-7.491 -13.038,-3.531 -2.716,3.843 -1.958,5.923 4.563,12.522 l 5.1,5.161 -11.75,-0.21 c -13.2,-0.235 -15.302,-0.633 -22.091,-4.186 -14.091,-7.374 -23.04,-28.138 -24.264,-56.3 L 186.346,106 H 206.173 226 V 90.635 75.27 l 4.625,4.545 c 6.754,6.637 9.358,7.689 12.857,5.198 4.389,-3.125 3.504,-6.756 -3.312,-13.593 -5.115,-5.131 -5.324,-5.42 -3.911,-5.412 0.82,0.005 7.023,0.223 13.785,0.486 M 133.5,86.25 V 106 H 153.75 174 v 4.264 c 0,25.682 8.991,52.084 21.632,63.526 9.932,8.988 18.283,11.752 36.522,12.085 l 12.405,0.227 -5.202,5.335 c -6.677,6.847 -7.421,10.08 -3.1,13.479 3.29,2.588 5.865,1.581 12.368,-4.836 l 4.875,-4.811 V 210.634 226 h 20 20 l -0.002,3.375 c -0.007,9.427 -1.771,29.685 -3.517,40.375 -1.187,7.265 -2.959,15.913 -3.405,16.611 -1.267,1.982 -32.71,6.186 -51.951,6.946 L 226,293.647 V 273.573 253.5 H 179.75 133.5 V 299.75 346 H 179.75 226 v -19.9 -19.899 l 12.125,-0.607 c 15.976,-0.8 32.982,-2.744 43.072,-4.925 1.762,-0.381 1.696,0.063 -1.042,7.031 C 262.612,352.341 230.78,373.17 180,373.233 102.404,373.33 66.781,330.606 66.014,236.528 L 66,234.805 l 5.673,5.598 c 6.344,6.259 7.951,6.889 11.714,4.595 4.769,-2.907 3.778,-6.893 -3.572,-14.373 L 75.27,226 H 90.635 106 V 179.75 133.5 H 90.654 75.308 l 5.346,-5.425 5.346,-5.426 v -2.536 c 0,-3.023 -1.529,-5.215 -4.266,-6.118 -2.918,-0.963 -4.852,0.073 -10.646,5.704 l -5.197,5.051 0.346,-6.5 c 1.16,-21.725 8.94,-34.797 25.739,-43.244 8.934,-4.493 25.882,-8.272 37.899,-8.452 L 133.5,66.5 V 86.25 M 94,180 v 34 H 60 26 v -34 -34 h 34 34 v 34 m 239.878,-0.125 -0.128,33.875 -33.875,0.128 L 266,214.007 V 180.003 146 h 34.003 34.004 l -0.129,33.875 M 214,300 v 34 h -34 -34 v -34 -34 h 34 34 v 34"
       inkscape:connector-curvature="0"
       style="fill:#d70f51;fill-rule:evenodd;stroke:none;fill-opacity:1" />
  </g>
</svg>
