<?xml version="1.0" encoding="UTF-8" standalone="no"?>
<svg
   xmlns:dc="http://purl.org/dc/elements/1.1/"
   xmlns:cc="http://creativecommons.org/ns#"
   xmlns:rdf="http://www.w3.org/1999/02/22-rdf-syntax-ns#"
   xmlns:svg="http://www.w3.org/2000/svg"
   xmlns="http://www.w3.org/2000/svg"
   xmlns:sodipodi="http://sodipodi.sourceforge.net/DTD/sodipodi-0.dtd"
   xmlns:inkscape="http://www.inkscape.org/namespaces/inkscape"
   id="Layer_1"
   enable-background="new 0 0 64 64"
   height="400"
   viewBox="0 0 50 50"
   width="400"
   version="1.1"
   sodipodi:docname="modeling.svg"
   inkscape:version="0.92.4 5da689c313, 2019-01-14">
  <metadata
     id="metadata37">
    <rdf:RDF>
      <cc:Work
         rdf:about="">
        <dc:format>image/svg+xml</dc:format>
        <dc:type
           rdf:resource="http://purl.org/dc/dcmitype/StillImage" />
        <dc:title></dc:title>
      </cc:Work>
    </rdf:RDF>
  </metadata>
  <defs
     id="defs35" />
  <sodipodi:namedview
     pagecolor="#ffffff"
     bordercolor="#666666"
     borderopacity="1"
     objecttolerance="10"
     gridtolerance="10"
     guidetolerance="10"
     inkscape:pageopacity="0"
     inkscape:pageshadow="2"
     inkscape:window-width="1533"
     inkscape:window-height="845"
     id="namedview33"
     showgrid="false"
     inkscape:zoom="1.2153625"
     inkscape:cx="256"
     inkscape:cy="256"
     inkscape:window-x="67"
     inkscape:window-y="27"
     inkscape:window-maximized="1"
     inkscape:current-layer="Layer_1" />
  <path
     d="m 41.339286,10.199005 c -0.08929,0 -0.178572,0.09046 -0.267857,0.09046 v 3.437358 l 0.357142,0.180914 c 0.892858,0.452284 1.428572,1.356852 1.428572,2.442334 v 3.799186 l 6.607143,-3.346902 C 49.732143,16.621438 50,16.350068 50,15.988241 V 5.857078 Z"
     id="path2"
     inkscape:connector-curvature="0"
     style="stroke-width:0.8986935" />
  <path
     d="m 40.535714,8.570782 8.303572,-4.251469 -8.303572,-4.25147 c -0.267857,-0.09046 -0.535714,-0.09046 -0.803571,0 l -8.303572,4.25147 8.303572,4.251469 c 0.267857,0.180914 0.625,0.180914 0.803571,0 z"
     id="path4"
     inkscape:connector-curvature="0"
     style="stroke-width:0.8986935" />
  <path
     d="m 39.285714,10.379919 c -0.08928,0 -0.178571,-0.09046 -0.267857,-0.09046 L 30.357143,5.857075 v 2.170964 l 8.928571,4.79421 z"
     id="path6"
     inkscape:connector-curvature="0"
     style="stroke-width:0.8986935" />
  <path
     d="m 25.446429,7.485301 c -0.267858,-0.180914 -0.535715,-0.180914 -0.803572,0 L 10,15.264586 24.642857,23.043872 c 0.267857,0.180913 0.535714,0.180913 0.803572,0 l 14.642857,-7.779286 z"
     id="path8"
     inkscape:connector-curvature="0"
     style="stroke-width:0.8986935" />
  <path
     d="m 10.714286,10.379919 v 2.442333 l 8.928571,-4.79421 V 5.857078 l -8.660714,4.341927 c -0.08929,0.09046 -0.178572,0.09046 -0.267857,0.180914 z"
     id="path10"
     inkscape:connector-curvature="0"
     style="stroke-width:0.8986935" />
  <path
     d="m 10.178571,8.570782 8.303572,-4.251469 -8.303572,-4.25147 c -0.2678567,-0.09046 -0.5357139,-0.09046 -0.803571,0 L 1.0714286,4.409769 9.375,8.661239 c 0.2678571,0.09046 0.625,0.09046 0.803571,-0.09046 z"
     id="path12"
     inkscape:connector-curvature="0"
     style="stroke-width:0.8986935" />
  <path
     d="m 0.53571429,16.711895 6.60714281,3.346902 v -3.799186 c 0,-0.995025 0.5357143,-1.899593 1.4285715,-2.442334 l 0.3571428,-0.180913 v -3.437359 c -0.089286,0 -0.1785714,-0.09046 -0.2678571,-0.09046 L 0,5.857078 v 10.040706 c 0,0.361827 0.17857143,0.723654 0.53571429,0.814111 z"
     id="path14"
     inkscape:connector-curvature="0"
     style="stroke-width:0.8986935" />
  <path
     d="m 13.392857,30.7327 v 2.623248 h -1.785714 v -3.527816 l -1.428572,-0.723654 c -0.08929,-0.09046 -0.2678567,-0.09046 -0.3571424,-0.09046 -0.1785715,0 -0.2678572,0 -0.3571429,0.09046 l -8.3035714,4.25147 8.75,4.432383 8.7499997,-4.432383 z"
     id="path16"
     inkscape:connector-curvature="0"
     style="stroke-width:0.8986935" />
  <path
     d="m 0,44.843962 c 0,0.361827 0.17857143,0.633198 0.53571429,0.814111 l 8.39285711,4.25147 V 39.326097 L 0,34.803256 Z"
     id="path18"
     inkscape:connector-curvature="0"
     style="stroke-width:0.8986935" />
  <path
     d="m 10.714286,50 8.392857,-4.25147 C 19.375,45.567616 19.642857,45.296246 19.642857,44.934419 V 34.803256 l -8.928571,4.522841 z"
     id="path20"
     inkscape:connector-curvature="0"
     style="stroke-width:0.8986935" />
  <path
     d="m 8.9285714,16.711895 v 10.673903 c 0.7142857,-0.27137 1.4285716,-0.180913 2.0535716,0.09046 l 0.625,0.271371 v -0.814112 c 0,-0.995025 0.535714,-1.899593 1.428571,-2.442334 l 3.482143,-1.899592 0.803572,1.628222 -3.482143,1.899593 c -0.267857,0.180914 -0.446429,0.452284 -0.446429,0.814111 v 1.71868 l 6.517857,3.346901 c 0.892857,0.452284 1.517857,1.356853 1.517857,2.442334 v 6.784261 l 2.678572,1.447309 V 24.762551 c -0.08929,0 -0.267857,-0.09046 -0.357143,-0.180914 z"
     id="path22"
     inkscape:connector-curvature="0"
     style="stroke-width:0.8986935" />
  <path
     d="m 36.607143,26.933514 c 0,-0.361827 -0.178572,-0.633197 -0.446429,-0.814111 l -3.482143,-1.899593 0.803572,-1.628222 3.482143,1.899592 c 0.892857,0.452284 1.428571,1.356853 1.428571,2.442334 v 0.814112 l 0.625,-0.271371 c 0.625,-0.361827 1.428572,-0.361827 2.053572,-0.09046 v -10.6739 L 26.25,24.581637 c -0.08929,0.09046 -0.267857,0.09046 -0.357143,0.180914 v 17.910448 l 2.678572,-1.447309 v -6.784261 c 0,-0.995025 0.535714,-1.99005 1.517857,-2.442334 l 6.517857,-3.346901 z"
     id="path24"
     inkscape:connector-curvature="0"
     style="stroke-width:0.8986935" />
  <path
     d="m 40.535714,29.104478 c -0.08928,-0.09046 -0.267857,-0.09046 -0.357143,-0.09046 -0.178571,0 -0.267857,0 -0.357142,0.09046 l -1.428572,0.723654 v 3.527816 H 36.607143 V 30.7327 l -5.178572,2.623248 8.75,4.432383 8.75,-4.432383 z"
     id="path26"
     inkscape:connector-curvature="0"
     style="stroke-width:0.8986935" />
  <path
     d="m 30.357143,44.843962 c 0,0.361827 0.178571,0.633198 0.535714,0.814111 l 8.392857,4.25147 V 39.326097 l -8.928571,-4.522841 z"
     id="path28"
     inkscape:connector-curvature="0"
     style="stroke-width:0.8986935" />
  <path
     d="m 41.071429,50 8.392857,-4.25147 C 49.732143,45.567616 50,45.296246 50,44.934419 V 34.803256 l -8.928571,4.522841 z"
     id="path30"
     inkscape:connector-curvature="0"
     style="stroke-width:0.8986935" />
</svg>
