<?xml version="1.0" encoding="UTF-8" standalone="no"?>
<svg
   xmlns:dc="http://purl.org/dc/elements/1.1/"
   xmlns:cc="http://creativecommons.org/ns#"
   xmlns:rdf="http://www.w3.org/1999/02/22-rdf-syntax-ns#"
   xmlns:svg="http://www.w3.org/2000/svg"
   xmlns="http://www.w3.org/2000/svg"
   xmlns:sodipodi="http://sodipodi.sourceforge.net/DTD/sodipodi-0.dtd"
   xmlns:inkscape="http://www.inkscape.org/namespaces/inkscape"
   height="400"
   viewBox="0 0 449.99999 299.99999"
   width="600"
   version="1.1"
   id="svg4"
   sodipodi:docname="mpsoc-noc-p.svg"
   inkscape:version="0.92.4 5da689c313, 2019-01-14">
  <metadata
     id="metadata10">
    <rdf:RDF>
      <cc:Work
         rdf:about="">
        <dc:format>image/svg+xml</dc:format>
        <dc:type
           rdf:resource="http://purl.org/dc/dcmitype/StillImage" />
        <dc:title></dc:title>
      </cc:Work>
    </rdf:RDF>
  </metadata>
  <defs
     id="defs8" />
  <sodipodi:namedview
     pagecolor="#ffffff"
     bordercolor="#666666"
     borderopacity="1"
     objecttolerance="10"
     gridtolerance="10"
     guidetolerance="10"
     inkscape:pageopacity="0"
     inkscape:pageshadow="2"
     inkscape:window-width="1533"
     inkscape:window-height="845"
     id="namedview6"
     showgrid="false"
     inkscape:zoom="0.062500002"
     inkscape:cx="-3688.9852"
     inkscape:cy="213.90982"
     inkscape:window-x="67"
     inkscape:window-y="27"
     inkscape:window-maximized="1"
     inkscape:current-layer="svg4"
     fit-margin-top="0"
     fit-margin-left="0"
     fit-margin-right="0"
     fit-margin-bottom="0"
     units="px" />
  <path
     d="m 366.21093,-5.8333333e-6 h -52.73437 c -4.85688,0 -8.78907,3.9321900333333 -8.78907,8.7890600333333 V 26.367184 H 260.15624 V 8.7890542 c 0,-4.85687 -3.93219,-8.7890600333333 -8.78906,-8.7890600333333 h -52.73437 c -4.85687,0 -8.78906,3.9321900333333 -8.78906,8.7890600333333 V 26.367184 H 145.3125 V 8.7890542 c 0,-4.85687 -3.93219,-8.7890600333333 -8.78907,-8.7890600333333 H 83.78906 C 78.932188,-5.8333333e-6 74.999998,3.9321842 74.999998,8.7890542 V 61.523424 c 0,4.85688 3.93219,8.78907 8.789062,8.78907 h 17.57813 V 114.84374 H 83.78906 c -4.856872,0 -8.789062,3.93219 -8.789062,8.78906 v 52.73436 c 0,4.85687 3.93219,8.78906 8.789062,8.78906 h 17.57813 v 44.53125 H 83.78906 c -4.856872,0 -8.789062,3.93219 -8.789062,8.78906 v 52.73438 c 0,4.85687 3.93219,8.78906 8.789062,8.78906 h 52.73437 c 4.85688,0 8.78907,-3.93219 8.78907,-8.78906 v -17.57813 h 44.53125 v 17.57813 c 0,4.85687 3.93219,8.78906 8.78906,8.78906 h 52.73437 c 4.85687,0 8.78906,-3.93219 8.78906,-8.78906 v -17.57813 h 44.53125 v 17.57813 c 0,4.85687 3.93219,8.78906 8.78907,8.78906 h 52.73437 c 4.85687,0 8.78906,-3.93219 8.78906,-8.78906 v -52.73438 c 0,-4.85687 -3.93219,-8.78906 -8.78906,-8.78906 H 348.6328 v -44.53125 h 17.57813 c 4.85687,0 8.78906,-3.93219 8.78906,-8.78906 V 123.6328 c 0,-4.85687 -3.93219,-8.78906 -8.78906,-8.78906 H 348.6328 V 70.312494 h 17.57813 c 4.85687,0 8.78906,-3.93219 8.78906,-8.78907 V 8.7890542 c 0,-4.85687 -3.93219,-8.7890600333333 -8.78906,-8.7890600333333 z M 118.94531,70.312494 h 17.57812 c 4.85688,0 8.78907,-3.93219 8.78907,-8.78907 v -17.57812 h 44.53125 v 17.57812 c 0,4.85688 3.93219,8.78907 8.78906,8.78907 h 17.57812 v 44.531246 h -17.57812 c -4.85687,0 -8.78906,3.93219 -8.78906,8.78906 v 17.57812 H 145.3125 V 123.6328 c 0,-4.85687 -3.93219,-8.78906 -8.78907,-8.78906 H 118.94531 Z M 145.3125,256.05466 v -17.57813 c 0,-4.85687 -3.93219,-8.78906 -8.78907,-8.78906 h -17.57812 v -44.53125 h 17.57812 c 4.85688,0 8.78907,-3.93219 8.78907,-8.78906 v -17.57811 h 44.53125 v 17.57811 c 0,4.85687 3.93219,8.78906 8.78906,8.78906 h 17.57812 v 44.53125 h -17.57812 c -4.85687,0 -8.78906,3.93219 -8.78906,8.78906 v 17.57813 z m 185.74218,-26.36719 h -17.57812 c -4.85688,0 -8.78907,3.93219 -8.78907,8.78906 v 17.57813 h -44.53125 v -17.57813 c 0,-4.85687 -3.93219,-8.78906 -8.78906,-8.78906 h -17.57812 v -44.53125 h 17.57812 c 4.85687,0 8.78906,-3.93219 8.78906,-8.78906 v -17.57811 h 44.53125 v 17.57811 c 0,4.85687 3.93219,8.78906 8.78907,8.78906 h 17.57812 z m 0,-114.84373 h -17.57812 c -4.85688,0 -8.78907,3.93219 -8.78907,8.78906 v 17.57812 H 260.15624 V 123.6328 c 0,-4.85687 -3.93219,-8.78906 -8.78906,-8.78906 H 233.78906 V 70.312494 h 17.57812 c 4.85687,0 8.78906,-3.93219 8.78906,-8.78907 v -17.57812 h 44.53125 v 17.57812 c 0,4.85688 3.93219,8.78907 8.78907,8.78907 h 17.57812 z m 0,0"
     id="path2"
     inkscape:connector-curvature="0"
     style="stroke-width:0.5859375;fill:#ff5e15;fill-opacity:1" />
</svg>
