<?xml version="1.0" encoding="UTF-8" standalone="no"?>
<svg
   xmlns:dc="http://purl.org/dc/elements/1.1/"
   xmlns:cc="http://creativecommons.org/ns#"
   xmlns:rdf="http://www.w3.org/1999/02/22-rdf-syntax-ns#"
   xmlns:svg="http://www.w3.org/2000/svg"
   xmlns="http://www.w3.org/2000/svg"
   xmlns:sodipodi="http://sodipodi.sourceforge.net/DTD/sodipodi-0.dtd"
   xmlns:inkscape="http://www.inkscape.org/namespaces/inkscape"
   version="1.2"
   id="Layer_1"
   width="133.33333"
   height="100"
   x="0px"
   y="0px"
   viewBox="0 0 76.550221 60.331329"
   xml:space="preserve"
   sodipodi:docname="open-source-hardware-o.svg"
   inkscape:version="0.92.4 5da689c313, 2019-01-14"><metadata
   id="metadata937"><rdf:RDF><cc:Work
       rdf:about=""><dc:format>image/svg+xml</dc:format><dc:type
         rdf:resource="http://purl.org/dc/dcmitype/StillImage" /><dc:title></dc:title></cc:Work></rdf:RDF></metadata><defs
   id="defs935" /><sodipodi:namedview
   pagecolor="#ffffff"
   bordercolor="#666666"
   borderopacity="1"
   objecttolerance="10"
   gridtolerance="10"
   guidetolerance="10"
   inkscape:pageopacity="0"
   inkscape:pageshadow="2"
   inkscape:window-width="1533"
   inkscape:window-height="845"
   id="namedview933"
   showgrid="false"
   inkscape:zoom="0.5"
   inkscape:cx="-347"
   inkscape:cy="200.00006"
   inkscape:window-x="67"
   inkscape:window-y="27"
   inkscape:window-maximized="1"
   inkscape:current-layer="Layer_1"
   fit-margin-top="0"
   fit-margin-left="0"
   fit-margin-right="0"
   fit-margin-bottom="0" />
<path
   d="m 58.544318,28.837943 -7.407575,-1.53042 c -0.180246,-0.03749 -0.377614,-0.22578 -0.438446,-0.41902 l -2.270621,-5.885338 c -0.08471,-0.18172 -0.06849,-0.46708 0.03605,-0.63629 l 4.315941,-6.988718 c 0.103187,-0.16821 0.08291,-0.42403 -0.04731,-0.56871 L 47.341714,6.8204886 c -0.130227,-0.14469 -0.360038,-0.1682101 -0.511443,-0.0526 L 40.42936,11.647977 c -0.151408,0.11564 -0.410957,0.13617 -0.575428,0.0461 L 34.718781,9.3586678 C 34.544396,9.2945678 34.374516,9.0778179 34.340272,8.877068 L 32.914089,0.36495 C 32.880739,0.1642 32.70275,0 32.518904,0 h -7.624319 c -0.183396,0 -0.361388,0.1642 -0.394732,0.36495 l -1.42573,8.512118 c -0.03425,0.2007499 -0.203676,0.4175198 -0.378512,0.4815998 l -5.135599,2.3354092 c -0.164924,0.0901 -0.424474,0.0696 -0.575429,-0.0461 L 10.584122,6.7678886 c -0.151855,-0.1156401 -0.382117,-0.0921 -0.511892,0.0526 L 4.6811342,12.809447 c -0.129776,0.14468 -0.1514045,0.4005 -0.047313,0.56871 l 4.3163907,6.988718 c 0.10364,0.16921 0.1198627,0.45457 0.035599,0.63629 l -2.2710818,5.885338 c -0.060383,0.19324 -0.2572981,0.38148 -0.4384436,0.41902 l -7.4071218,1.53042 c -0.1811472,0.038 -0.3284944,0.23529 -0.3284944,0.43954 l 5e-4,8.470067 c 0,0.20425 0.1477997,0.402999 0.3284969,0.439539 l 7.2255268,1.49387 c 0.1806945,0.03649 0.3740062,0.227281 0.4289802,0.422021 l 2.2557527,6.260308 c 0.080659,0.183729 0.061733,0.47108 -0.042808,0.639291 l -4.1041534,6.644787 c -0.10364,0.16821 -0.082463,0.42453 0.047315,0.56921 l 5.3915465,5.988969 c 0.129776,0.14368 0.360038,0.167209 0.511893,0.0526 l 5.87505,-4.48008 c 0.151406,-0.115133 0.405099,-0.124146 0.563263,-0.02151 l 2.591004,1.53692 c 0.164024,0.09311 0.355531,0.01449 0.425827,-0.174219 L 25.381239,42.77787 c 0.07075,-0.188731 0,-0.42953 -0.156813,-0.53616 L 24.576002,41.80066 C 24.456135,41.71955 24.293468,41.57988 24.165946,41.45172 21.82683,39.78766 20.27493,36.876531 20.27493,33.561392 c 0,-5.173449 3.775208,-9.367177 8.431359,-9.367177 4.65615,0 8.430907,4.193728 8.430907,9.367177 0,3.315139 -1.551446,6.226268 -3.891017,7.890338 -0.126626,0.12816 -0.28974,0.26783 -0.409152,0.34894 l -0.648428,0.44105 c -0.155912,0.106627 -0.227104,0.34743 -0.156812,0.536159 l 5.341983,14.341887 c 0.07029,0.18874 0.261354,0.26683 0.425824,0.17422 L 40.3906,55.757071 c 0.158613,-0.102627 0.41186,-0.09411 0.563264,0.02149 l 5.8755,4.480089 c 0.151404,0.11464 0.382115,0.09111 0.511443,-0.0526 l 5.391543,-5.988958 c 0.130227,-0.14468 0.151405,-0.401001 0.04731,-0.569211 l -4.104606,-6.644808 c -0.10364,-0.168209 -0.123013,-0.455569 -0.04236,-0.6393 l 2.255754,-6.260299 c 0.05541,-0.19474 0.247381,-0.38548 0.428526,-0.422029 l 7.22553,-1.49386 c 0.18024,-0.0366 0.328495,-0.2353 0.328495,-0.43955 l 0.001,-8.470057 c 7.49e-4,-0.20476 -0.147351,-0.402 -0.327591,-0.44005"
   id="path896"
   style="fill:#ff5e15;fill-opacity:1;stroke-width:0.47495914"
   inkscape:connector-curvature="0" />

















</svg>