<?xml version="1.0" encoding="UTF-8" standalone="no"?>
<!-- Generator: Adobe Illustrator 19.0.0, SVG Export Plug-In . SVG Version: 6.00 Build 0)  -->

<svg
   xmlns:dc="http://purl.org/dc/elements/1.1/"
   xmlns:cc="http://creativecommons.org/ns#"
   xmlns:rdf="http://www.w3.org/1999/02/22-rdf-syntax-ns#"
   xmlns:svg="http://www.w3.org/2000/svg"
   xmlns="http://www.w3.org/2000/svg"
   xmlns:sodipodi="http://sodipodi.sourceforge.net/DTD/sodipodi-0.dtd"
   xmlns:inkscape="http://www.inkscape.org/namespaces/inkscape"
   version="1.1"
   id="Capa_1"
   x="0px"
   y="0px"
   viewBox="0 0 400 400"
   xml:space="preserve"
   sodipodi:docname="optimizing.svg"
   width="400"
   height="400"
   inkscape:version="0.92.4 5da689c313, 2019-01-14"><metadata
   id="metadata79"><rdf:RDF><cc:Work
       rdf:about=""><dc:format>image/svg+xml</dc:format><dc:type
         rdf:resource="http://purl.org/dc/dcmitype/StillImage" /><dc:title></dc:title></cc:Work></rdf:RDF></metadata><defs
   id="defs77" /><sodipodi:namedview
   pagecolor="#ffffff"
   bordercolor="#666666"
   borderopacity="1"
   objecttolerance="10"
   gridtolerance="10"
   guidetolerance="10"
   inkscape:pageopacity="0"
   inkscape:pageshadow="2"
   inkscape:window-width="1533"
   inkscape:window-height="845"
   id="namedview75"
   showgrid="false"
   inkscape:zoom="1.2434375"
   inkscape:cx="251.332"
   inkscape:cy="163.2356"
   inkscape:window-x="67"
   inkscape:window-y="27"
   inkscape:window-maximized="1"
   inkscape:current-layer="Capa_1" />
<g
   id="g42"
   transform="matrix(0.84044771,0,0,0.79576177,-11.230903,-1.4648438e-6)">
	<g
   id="g10">
		<g
   id="g8">
			<path
   style="fill:#010002"
   d="M 363.888,260.359 V 229.491 H 333.56 c -2.071,-11.001 -6.299,-21.183 -12.339,-30.113 l 21.355,-21.398 -21.808,-21.808 -21.398,21.355 c -8.887,-6.04 -19.133,-10.268 -30.113,-12.36 V 134.86 H 238.39 v 30.307 c -10.98,2.136 -21.183,6.32 -30.048,12.382 l -21.463,-21.377 -21.83,21.808 21.398,21.398 c -6.061,8.909 -10.311,19.112 -12.403,30.113 h -30.285 v 30.868 h 30.285 c 2.114,10.958 6.342,21.161 12.403,30.113 l -21.398,21.398 21.83,21.83 21.42,-21.398 c 8.909,6.061 19.112,10.311 30.113,12.403 v 30.329 h 30.868 v -30.307 c 10.98,-2.114 21.204,-6.363 30.113,-12.403 l 21.397,21.376 21.83,-21.83 -21.355,-21.398 c 6.061,-8.93 10.289,-19.155 12.36,-30.113 0,0 30.263,0 30.263,0 z m -110.075,18.228 c -18.572,0 -33.694,-15.078 -33.694,-33.672 0,-18.594 15.1,-33.65 33.694,-33.65 18.551,0 33.629,15.056 33.629,33.65 0.021,18.594 -15.035,33.672 -33.629,33.672 z"
   id="path2"
   inkscape:connector-curvature="0" />
			<path
   style="fill:#010002"
   d="m 82.692,244.073 c 0.022,-93.337 75.67,-169.007 169.007,-169.007 24.397,0 47.369,5.544 68.293,14.862 l -29.25,29.077 119.394,0.41 L 410.481,0 371.675,38.547 C 336.429,17.861 295.552,5.738 251.699,5.738 120.074,5.738 13.363,112.449 13.363,244.074 c 0,55.006 18.81,105.503 50.087,145.84 l 49.483,-49.483 C 93.93,313.057 82.692,279.881 82.692,244.073 Z"
   id="path4"
   inkscape:connector-curvature="0" />
			<path
   style="fill:#010002"
   d="m 450.97,116.676 -53.517,45.061 c 16.609,28.883 24.957,62.857 21.916,98.535 -7.938,93.013 -89.778,161.932 -182.791,153.972 -12.856,-1.1 -25.13,-3.904 -36.908,-7.679 l 28.495,-35.355 -118.704,12.727 12.748,118.726 31.946,-39.626 c 23.62,10.634 49.16,17.99 76.468,20.32 131.15,11.238 246.576,-86.003 257.792,-217.132 4.726,-54.788 -9.727,-106.709 -37.445,-149.549 z"
   id="path6"
   inkscape:connector-curvature="0" />
		</g>
	</g>
	<g
   id="g12">
	</g>
	<g
   id="g14">
	</g>
	<g
   id="g16">
	</g>
	<g
   id="g18">
	</g>
	<g
   id="g20">
	</g>
	<g
   id="g22">
	</g>
	<g
   id="g24">
	</g>
	<g
   id="g26">
	</g>
	<g
   id="g28">
	</g>
	<g
   id="g30">
	</g>
	<g
   id="g32">
	</g>
	<g
   id="g34">
	</g>
	<g
   id="g36">
	</g>
	<g
   id="g38">
	</g>
	<g
   id="g40">
	</g>
</g>
<g
   id="g44"
   transform="translate(0,-102.664)">
</g>
<g
   id="g46"
   transform="translate(0,-102.664)">
</g>
<g
   id="g48"
   transform="translate(0,-102.664)">
</g>
<g
   id="g50"
   transform="translate(0,-102.664)">
</g>
<g
   id="g52"
   transform="translate(0,-102.664)">
</g>
<g
   id="g54"
   transform="translate(0,-102.664)">
</g>
<g
   id="g56"
   transform="translate(0,-102.664)">
</g>
<g
   id="g58"
   transform="translate(0,-102.664)">
</g>
<g
   id="g60"
   transform="translate(0,-102.664)">
</g>
<g
   id="g62"
   transform="translate(0,-102.664)">
</g>
<g
   id="g64"
   transform="translate(0,-102.664)">
</g>
<g
   id="g66"
   transform="translate(0,-102.664)">
</g>
<g
   id="g68"
   transform="translate(0,-102.664)">
</g>
<g
   id="g70"
   transform="translate(0,-102.664)">
</g>
<g
   id="g72"
   transform="translate(0,-102.664)">
</g>
</svg>