<?xml version="1.0" encoding="UTF-8" standalone="no"?>
<!-- Svg Vector Icons : http://www.onlinewebfonts.com/icon -->

<svg
   xmlns:dc="http://purl.org/dc/elements/1.1/"
   xmlns:cc="http://creativecommons.org/ns#"
   xmlns:rdf="http://www.w3.org/1999/02/22-rdf-syntax-ns#"
   xmlns:svg="http://www.w3.org/2000/svg"
   xmlns="http://www.w3.org/2000/svg"
   xmlns:sodipodi="http://sodipodi.sourceforge.net/DTD/sodipodi-0.dtd"
   xmlns:inkscape="http://www.inkscape.org/namespaces/inkscape"
   version="1.1"
   x="0px"
   y="0px"
   viewBox="0 0 400 400"
   enable-background="new 0 0 1000 1000"
   xml:space="preserve"
   id="svg30"
   sodipodi:docname="planning.svg"
   width="400"
   height="400"
   inkscape:version="0.92.4 5da689c313, 2019-01-14"><defs
   id="defs34" /><sodipodi:namedview
   pagecolor="#ffffff"
   bordercolor="#666666"
   borderopacity="1"
   objecttolerance="10"
   gridtolerance="10"
   guidetolerance="10"
   inkscape:pageopacity="0"
   inkscape:pageshadow="2"
   inkscape:window-width="1533"
   inkscape:window-height="845"
   id="namedview32"
   showgrid="false"
   fit-margin-top="0"
   fit-margin-left="0"
   fit-margin-right="0"
   fit-margin-bottom="0"
   inkscape:zoom="0.236"
   inkscape:cx="500"
   inkscape:cy="500.00001"
   inkscape:window-x="67"
   inkscape:window-y="27"
   inkscape:window-maximized="1"
   inkscape:current-layer="svg30" />
<metadata
   id="metadata2"> Svg Vector Icons : http://www.onlinewebfonts.com/icon <rdf:RDF><cc:Work
     rdf:about=""><dc:format>image/svg+xml</dc:format><dc:type
       rdf:resource="http://purl.org/dc/dcmitype/StillImage" /><dc:title></dc:title></cc:Work></rdf:RDF></metadata>
<g
   id="g28"
   transform="matrix(0.40816327,0,0,0.40816327,-4.0816327,-4.0816327)"><g
     transform="matrix(0.1,0,0,-0.1,0,511)"
     id="g26"><path
       d="M 100,2648.6 V 287.1 H 1186.3 2272.6 V 2648.5 5010 H 1186.3 100 Z"
       id="path4"
       inkscape:connector-curvature="0" /><path
       d="M 2650.4,3923.7 V 2837.5 H 3736.7 4823 V 3923.8 5010 H 3736.6 2650.4 Z"
       id="path6"
       inkscape:connector-curvature="0" /><path
       d="M 5177.1,3923.7 V 2837.5 H 6263.4 7349.7 V 3923.8 5010 H 6263.4 5177.1 Z"
       id="path8"
       inkscape:connector-curvature="0" /><path
       d="M 7727.5,3923.7 V 2837.5 H 8813.8 9900 V 3923.8 5010 H 8813.7 7727.5 Z"
       id="path10"
       inkscape:connector-curvature="0" /><path
       d="M 2650.4,110 V -2239.6 H 3736.7 4823 V 110 2459.6 H 3736.6 2650.4 Z"
       id="path12"
       inkscape:connector-curvature="0" /><path
       d="M 5177.1,1373.4 V 287.1 H 6263.4 7349.7 V 1373.4 2459.7 H 6263.4 5177.1 Z"
       id="path14"
       inkscape:connector-curvature="0" /><path
       d="M 7727.5,1373.4 V 287.1 H 8813.8 9900 V 1373.4 2459.7 H 8813.7 7727.5 Z"
       id="path16"
       inkscape:connector-curvature="0" /><path
       d="M 100,-1153.4 V -2239.7 H 1186.3 2272.6 V -1153.4 -67.1 H 1186.3 100 Z"
       id="path18"
       inkscape:connector-curvature="0" /><path
       d="M 5177.1,-2404.9 V -4742.7 H 7538.5 9900 V -2404.9 -67.1 H 7538.6 5177.1 Z"
       id="path20"
       inkscape:connector-curvature="0" /><path
       d="M 100,-3703.7 V -4790 h 1086.3 1086.3 v 1086.3 1086.3 H 1186.3 100 Z"
       id="path22"
       inkscape:connector-curvature="0" /><path
       d="M 2650.4,-3703.7 V -4790 H 3736.7 4823 v 1086.3 1086.3 H 3736.6 2650.4 Z"
       id="path24"
       inkscape:connector-curvature="0" /></g></g>
</svg>