<?xml version="1.0" encoding="UTF-8" standalone="no"?>
<svg
   xmlns:dc="http://purl.org/dc/elements/1.1/"
   xmlns:cc="http://creativecommons.org/ns#"
   xmlns:rdf="http://www.w3.org/1999/02/22-rdf-syntax-ns#"
   xmlns:svg="http://www.w3.org/2000/svg"
   xmlns="http://www.w3.org/2000/svg"
   xmlns:sodipodi="http://sodipodi.sourceforge.net/DTD/sodipodi-0.dtd"
   xmlns:inkscape="http://www.inkscape.org/namespaces/inkscape"
   height="400"
   viewBox="0 0 299.99999 299.99999"
   width="400"
   version="1.1"
   id="svg38"
   sodipodi:docname="pMPSoC.svg"
   inkscape:version="0.92.4 5da689c313, 2019-01-14">
  <metadata
     id="metadata44">
    <rdf:RDF>
      <cc:Work
         rdf:about="">
        <dc:format>image/svg+xml</dc:format>
        <dc:type
           rdf:resource="http://purl.org/dc/dcmitype/StillImage" />
        <dc:title></dc:title>
      </cc:Work>
    </rdf:RDF>
  </metadata>
  <defs
     id="defs42" />
  <sodipodi:namedview
     pagecolor="#ffffff"
     bordercolor="#666666"
     borderopacity="1"
     objecttolerance="10"
     gridtolerance="10"
     guidetolerance="10"
     inkscape:pageopacity="0"
     inkscape:pageshadow="2"
     inkscape:window-width="1533"
     inkscape:window-height="845"
     id="namedview40"
     showgrid="false"
     units="px"
     fit-margin-top="0"
     fit-margin-left="0"
     fit-margin-right="0"
     fit-margin-bottom="0"
     inkscape:zoom="0.18796569"
     inkscape:cx="-520.51115"
     inkscape:cy="-63.657646"
     inkscape:window-x="67"
     inkscape:window-y="27"
     inkscape:window-maximized="1"
     inkscape:current-layer="svg38" />
  <path
     d="m 224.99999,37.5 h 9.375 v 28.125 h -9.375 z m 0,0"
     id="path2"
     inkscape:connector-curvature="0"
     style="stroke-width:0.5859375" />
  <path
     d="m 243.74999,37.5 h 9.375 v 28.125 h -9.375 z m 0,0"
     id="path4"
     inkscape:connector-curvature="0"
     style="stroke-width:0.5859375" />
  <path
     d="m 187.49999,159.37499 h -9.375 v -9.375 h 9.375 z m 0,-18.75 h -9.375 V 131.25 h 9.375 z m 0,-18.74999 h -9.375 V 112.5 h 9.375 z m 0,-18.75 h -9.375 V 93.75 h 9.375 z m 0,0"
     id="path6"
     inkscape:connector-curvature="0"
     style="stroke-width:0.5859375" />
  <path
     d="m 281.24999,159.37499 h -9.375 v -9.375 h 9.375 z m 0,-18.75 h -9.375 V 131.25 h 9.375 z m 0,-18.74999 h -9.375 V 112.5 h 9.375 z m 0,-18.75 h -9.375 V 93.75 h 9.375 z m 0,0"
     id="path8"
     inkscape:connector-curvature="0"
     style="stroke-width:0.5859375" />
  <path
     d="m 28.124999,281.24999 h -9.375 v -9.375 h 9.375 z m 0,-18.75 h -9.375 v -9.375 h 9.375 z m 0,-18.75 h -9.375 v -9.375 h 9.375 z m 0,-18.75 h -9.375 v -9.375 h 9.375 z m 0,0"
     id="path10"
     inkscape:connector-curvature="0"
     style="stroke-width:0.5859375" />
  <path
     d="m 46.874999,281.24999 h -9.375 v -9.375 h 9.375 z m 0,-18.75 h -9.375 v -9.375 h 9.375 z m 0,-18.75 h -9.375 v -9.375 h 9.375 z m 0,-18.75 h -9.375 v -9.375 h 9.375 z m 0,0"
     id="path12"
     inkscape:connector-curvature="0"
     style="stroke-width:0.5859375" />
  <path
     d="m 65.624998,281.24999 h -9.375 v -9.375 h 9.375 z m 0,-18.75 h -9.375 v -9.375 h 9.375 z m 0,-18.75 h -9.375 v -9.375 h 9.375 z m 0,-18.75 h -9.375 v -9.375 h 9.375 z m 0,0"
     id="path14"
     inkscape:connector-curvature="0"
     style="stroke-width:0.5859375" />
  <path
     d="m 84.374997,281.24999 h -9.374999 v -9.375 h 9.374999 z m 0,-18.75 h -9.374999 v -9.375 h 9.374999 z m 0,-18.75 h -9.374999 v -9.375 h 9.374999 z m 0,-18.75 h -9.374999 v -9.375 h 9.374999 z m 0,0"
     id="path16"
     inkscape:connector-curvature="0"
     style="stroke-width:0.5859375" />
  <path
     d="m 18.749999,56.25 h 37.499999 v 9.375 H 18.749999 Z m 0,0"
     id="path18"
     inkscape:connector-curvature="0"
     style="stroke-width:0.5859375" />
  <path
     d="m 18.749999,206.24999 h 28.125 V 75 h -28.125 z m 9.375,-121.87499 h 9.375 v 84.37499 h -9.375 z m 0,93.74999 h 9.375 v 18.75 h -9.375 z m 0,0"
     id="path20"
     inkscape:connector-curvature="0"
     style="stroke-width:0.5859375" />
  <path
     d="M 56.249998,206.24999 H 84.374997 V 75 H 56.249998 Z m 9.375,-121.87499 h 9.375 v 84.37499 h -9.375 z m 0,93.74999 h 9.375 v 18.75 h -9.375 z m 0,0"
     id="path22"
     inkscape:connector-curvature="0"
     style="stroke-width:0.5859375" />
  <path
     d="m 262.49999,93.75 h -65.625 v 65.62499 h 65.625 z m -9.375,56.24999 h -46.875 V 103.125 h 46.875 z m 0,0"
     id="path24"
     inkscape:connector-curvature="0"
     style="stroke-width:0.5859375" />
  <path
     d="m 243.74999,112.5 h -28.125 v 28.12499 h 28.125 z m -9.375,18.75 h -9.375 v -9.375 h 9.375 z m 0,0"
     id="path26"
     inkscape:connector-curvature="0"
     style="stroke-width:0.5859375" />
  <path
     d="M 271.87499,178.12499 H 112.5 v 9.375 h -9.375 v 9.375 h 9.375 v 9.375 h 159.37499 v -9.375 h 9.375 v -9.375 h -9.375 z m -9.375,18.75 H 121.875 v -9.375 h 140.62499 z m 0,0"
     id="path28"
     inkscape:connector-curvature="0"
     style="stroke-width:0.5859375" />
  <path
     d="M 271.87499,215.62499 H 112.5 v 9.375 h -9.375 v 9.375 h 9.375 v 9.375 h 159.37499 v -9.375 h 9.375 v -9.375 h -9.375 z m -9.375,18.75 H 121.875 v -9.375 h 140.62499 z m 0,0"
     id="path30"
     inkscape:connector-curvature="0"
     style="stroke-width:0.5859375" />
  <path
     d="M 271.87499,253.12499 H 112.5 v 9.375 h -9.375 v 9.375 h 9.375 v 9.375 h 159.37499 v -9.375 h 9.375 v -9.375 h -9.375 z m -9.375,18.75 H 121.875 v -9.375 h 140.62499 z m 0,0"
     id="path32"
     inkscape:connector-curvature="0"
     style="stroke-width:0.5859375" />
  <path
     d="m 103.125,159.37499 h 9.375 v 9.375 h 9.375 v -9.375 h 9.375 v 9.375 h 9.375 v -9.375 H 150 v -9.375 h 9.375 v -9.375 H 150 V 131.25 h 9.375 v -9.375 H 150 V 112.5 h -9.375 v -9.375 h -9.375 v 9.375 h -9.375 v -9.375 H 112.5 v 9.375 h -9.375 v 9.375 h -9.375003 v 9.375 H 103.125 v 9.37499 h -9.375003 v 9.375 H 103.125 Z M 112.5,121.875 h 28.125 v 28.12499 H 112.5 Z m 0,0"
     id="path34"
     inkscape:connector-curvature="0"
     style="stroke-width:0.5859375" />
  <path
     d="m 271.87499,37.5 v -9.375 h 9.375 V 18.75 h -18.75 V 0 h -46.875 v 18.75 h -18.75 v 9.375 h 9.375 V 37.5 h -18.75 v -9.375 h -9.375 V 18.75 h -9.375 v 9.375 H 159.375 V 18.75 H 150 v 9.375 h -9.375 V 37.5 H 131.25 V 28.125 H 103.125 V 37.5 H 93.749997 V 28.125 H 65.624998 V 37.5 H 0 V 299.99999 H 299.99999 V 37.5 Z m -46.875,-28.125 h 28.125 v 9.375 h -28.125 z m -9.375,18.75 h 46.875 V 75 h -46.875 z M 150,37.5 h 28.12499 V 65.625 H 150 Z m -37.5,0 h 9.375 V 84.375 H 112.5 Z m -37.500002,0 h 9.374999 V 56.25 H 74.999998 Z M 290.62499,290.62499 H 9.3749997 V 46.875 H 65.624998 v 18.75 H 93.749997 V 46.875 H 103.125 V 93.75 H 131.25 V 46.875 h 9.375 V 75 h 46.87499 V 46.875 h 18.75 v 37.5 h 65.625 v -37.5 h 18.75 z m 0,0"
     id="path36"
     inkscape:connector-curvature="0"
     style="stroke-width:0.5859375" />
</svg>
