<?xml version="1.0" encoding="UTF-8" standalone="no"?>
<svg
   xmlns:dc="http://purl.org/dc/elements/1.1/"
   xmlns:cc="http://creativecommons.org/ns#"
   xmlns:rdf="http://www.w3.org/1999/02/22-rdf-syntax-ns#"
   xmlns:svg="http://www.w3.org/2000/svg"
   xmlns="http://www.w3.org/2000/svg"
   xmlns:sodipodi="http://sodipodi.sourceforge.net/DTD/sodipodi-0.dtd"
   xmlns:inkscape="http://www.inkscape.org/namespaces/inkscape"
   id="Layer_1_1_"
   enable-background="new 0 0 64 64"
   height="400"
   viewBox="0 0 50 50"
   width="400"
   version="1.1"
   sodipodi:docname="pNTM.svg"
   inkscape:version="0.92.5 (2060ec1f9f, 2020-04-08)">
  <metadata
     id="metadata17">
    <rdf:RDF>
      <cc:Work
         rdf:about="">
        <dc:format>image/svg+xml</dc:format>
        <dc:type
           rdf:resource="http://purl.org/dc/dcmitype/StillImage" />
        <dc:title></dc:title>
      </cc:Work>
    </rdf:RDF>
  </metadata>
  <defs
     id="defs15" />
  <sodipodi:namedview
     pagecolor="#ffffff"
     bordercolor="#666666"
     borderopacity="1"
     objecttolerance="10"
     gridtolerance="10"
     guidetolerance="10"
     inkscape:pageopacity="0"
     inkscape:pageshadow="2"
     inkscape:window-width="1114"
     inkscape:window-height="423"
     id="namedview13"
     showgrid="false"
     fit-margin-top="0"
     fit-margin-left="0"
     fit-margin-right="0"
     fit-margin-bottom="0"
     inkscape:zoom="0.044303938"
     inkscape:cx="308.39793"
     inkscape:cy="-197.01354"
     inkscape:window-x="486"
     inkscape:window-y="191"
     inkscape:window-maximized="0"
     inkscape:current-layer="Layer_1_1_" />
  <path
     d="m 33.333333,13.709677 c 0.220834,0 0.433334,-0.08468 0.589167,-0.23629 l 9.755833,-9.441129 h 1.475 c 0.345,0.93629 1.261667,1.612903 2.346667,1.612903 1.378333,0 2.5,-1.085484 2.5,-2.419355 0,-1.333871 -1.121667,-2.419354 -2.5,-2.419354 -1.085,0 -2.001667,0.676613 -2.346667,1.612903 h -1.82 c -0.220833,0 -0.433333,0.08468 -0.589166,0.23629 l -9.755834,9.441129 h -1.321666 v -0.806451 c 0,-1.333871 -1.121667,-2.419355 -2.5,-2.419355 -1.378334,0 -2.5,1.085484 -2.5,2.419355 v 2.419354 h -4.250834 c -0.3875,-1.837903 -2.07,-3.225806 -4.0825,-3.225806 -1.043333,0 -1.986666,0.38629 -2.718333,1.001613 l -7.7133333,-5.7 C 8.17,5.252419 8.333333,4.662903 8.333333,4.032258 8.333333,1.808871 6.4641667,0 4.1666667,0 1.8691667,0 0,1.808871 0,4.032258 0,6.255645 1.8691667,8.064516 4.1666667,8.064516 5.21,8.064516 6.1533333,7.678226 6.885,7.062903 l 7.713333,5.7 c -0.150833,0.299194 -0.276666,0.611291 -0.3475,0.945968 H 8.249167 c -0.3875003,-1.837097 -2.0708337,-3.225 -4.0825003,-3.225 C 1.8691667,10.483871 0,12.292742 0,14.516129 c 0,2.223387 1.8691667,4.032258 4.1666667,4.032258 1.0433333,0 1.9866666,-0.38629 2.7183333,-1.001613 L 9.876667,19.758065 6.885,21.969355 C 6.1533333,21.354032 5.21,20.967742 4.1666667,20.967742 1.8691667,20.967742 0,22.776613 0,25 c 0,2.223387 1.8691667,4.032258 4.1666667,4.032258 1.0433333,0 1.9866666,-0.38629 2.7183333,-1.001613 L 9.876667,30.241935 6.885,32.453226 C 6.1533333,31.837903 5.21,31.451613 4.1666667,31.451613 1.8691667,31.451613 0,33.260484 0,35.483871 c 0,2.223387 1.8691667,4.032258 4.1666667,4.032258 2.0116666,0 3.695,-1.387903 4.0825003,-3.225806 h 6.001666 c 0.07083,0.334677 0.196667,0.646774 0.3475,0.945967 l -7.713333,5.7 C 6.1533333,42.321774 5.21,41.935484 4.1666667,41.935484 1.8691667,41.935484 0,43.744355 0,45.967742 0,48.191129 1.8691667,50 4.1666667,50 c 2.2975,0 4.1666663,-1.808871 4.1666663,-4.032258 0,-0.630645 -0.163333,-1.220161 -0.4316663,-1.752419 l 7.7133333,-5.7 c 0.731667,0.614516 1.675,1.000806 2.718333,1.000806 2.011667,0 3.695,-1.387903 4.0825,-3.225806 h 4.250834 v 1.612903 c 0,1.333871 1.121666,2.419355 2.5,2.419355 1.378333,0 2.5,-1.085484 2.5,-2.419355 h 1.321666 l 9.755834,9.441129 c 0.155833,0.151613 0.368333,0.23629 0.589166,0.23629 h 1.82 c 0.345,0.93629 1.261667,1.612903 2.346667,1.612903 1.378333,0 2.5,-1.085483 2.5,-2.419354 0,-1.333871 -1.121667,-2.419355 -2.5,-2.419355 -1.085,0 -2.001667,0.676613 -2.346667,1.612903 h -1.475 L 33.9225,36.526613 C 33.766667,36.375 33.554167,36.290323 33.333333,36.290323 h -1.666666 v -2.419355 h 3.821666 l 6.4225,6.215322 c 0.155834,0.151613 0.368334,0.236291 0.589167,0.236291 h 2.653333 c 0.345,0.93629 1.261667,1.612903 2.346667,1.612903 1.378333,0 2.5,-1.085484 2.5,-2.419355 0,-1.333871 -1.121667,-2.419355 -2.5,-2.419355 -1.085,0 -2.001667,0.676613 -2.346667,1.612903 H 42.845 l -6.4225,-6.215322 c -0.155833,-0.151613 -0.368333,-0.23629 -0.589167,-0.23629 H 31.666667 V 29.83871 h 7.155 l 3.089166,2.989516 c 0.155834,0.151613 0.368334,0.23629 0.589167,0.23629 h 2.653333 c 0.345,0.93629 1.261667,1.612903 2.346667,1.612903 1.378333,0 2.5,-1.085484 2.5,-2.419354 0,-1.333871 -1.121667,-2.419355 -2.5,-2.419355 -1.085,0 -2.001667,0.676613 -2.346667,1.612903 H 42.845 L 39.755833,28.462097 C 39.6,28.310484 39.3875,28.225806 39.166667,28.225806 h -7.5 v -2.419354 h 13.486666 c 0.345,0.93629 1.261667,1.612903 2.346667,1.612903 1.378333,0 2.5,-1.085484 2.5,-2.419355 0,-1.333871 -1.121667,-2.419355 -2.5,-2.419355 -1.085,0 -2.001667,0.676613 -2.346667,1.612903 H 31.666667 v -2.419354 h 7.5 c 0.220833,0 0.433333,-0.08468 0.589166,-0.236291 L 42.845,18.548387 h 2.308333 c 0.345,0.93629 1.261667,1.612903 2.346667,1.612903 1.378333,0 2.5,-1.085484 2.5,-2.419355 0,-1.33387 -1.121667,-2.419354 -2.5,-2.419354 -1.085,0 -2.001667,0.676613 -2.346667,1.612903 H 42.5 c -0.220833,0 -0.433333,0.08468 -0.589167,0.23629 l -3.089166,2.989516 h -7.155 v -2.419355 h 4.166666 c 0.220834,0 0.433334,-0.08468 0.589167,-0.23629 l 6.4225,-6.215322 h 2.308333 c 0.345,0.93629 1.261667,1.612903 2.346667,1.612903 1.378333,0 2.5,-1.085484 2.5,-2.419355 C 50,9.15 48.878333,8.064516 47.5,8.064516 c -1.085,0 -2.001667,0.676613 -2.346667,1.612903 H 42.5 c -0.220833,0 -0.433333,0.08468 -0.589167,0.236291 l -6.4225,6.215322 H 31.666667 V 13.709677 Z M 47.5,2.419355 c 0.459167,0 0.833333,0.36129 0.833333,0.806451 0,0.445162 -0.374166,0.806452 -0.833333,0.806452 -0.459167,0 -0.833333,-0.36129 -0.833333,-0.806452 0,-0.445161 0.374166,-0.806451 0.833333,-0.806451 z m 0,43.548387 c 0.459167,0 0.833333,0.36129 0.833333,0.806452 0,0.445161 -0.374166,0.806451 -0.833333,0.806451 -0.459167,0 -0.833333,-0.36129 -0.833333,-0.806451 0,-0.445162 0.374166,-0.806452 0.833333,-0.806452 z m 0,-7.258065 c 0.459167,0 0.833333,0.361291 0.833333,0.806452 0,0.445161 -0.374166,0.806452 -0.833333,0.806452 -0.459167,0 -0.833333,-0.361291 -0.833333,-0.806452 0,-0.445161 0.374166,-0.806452 0.833333,-0.806452 z m 0,-7.258064 c 0.459167,0 0.833333,0.36129 0.833333,0.806452 0,0.445161 -0.374166,0.806451 -0.833333,0.806451 -0.459167,0 -0.833333,-0.36129 -0.833333,-0.806451 0,-0.445162 0.374166,-0.806452 0.833333,-0.806452 z m 0,-7.258065 c 0.459167,0 0.833333,0.361291 0.833333,0.806452 0,0.445161 -0.374166,0.806452 -0.833333,0.806452 -0.459167,0 -0.833333,-0.361291 -0.833333,-0.806452 0,-0.445161 0.374166,-0.806452 0.833333,-0.806452 z m 0,-7.258064 c 0.459167,0 0.833333,0.36129 0.833333,0.806451 0,0.445162 -0.374166,0.806452 -0.833333,0.806452 -0.459167,0 -0.833333,-0.36129 -0.833333,-0.806452 0,-0.445161 0.374166,-0.806451 0.833333,-0.806451 z m 0,-7.258065 c 0.459167,0 0.833333,0.361291 0.833333,0.806452 0,0.445161 -0.374166,0.806452 -0.833333,0.806452 -0.459167,0 -0.833333,-0.361291 -0.833333,-0.806452 0,-0.445161 0.374166,-0.806452 0.833333,-0.806452 z m -25.084167,5.645162 h 4.250834 v 8.870967 h -4.250834 c -0.3875,-1.837903 -2.07,-3.225806 -4.0825,-3.225806 -1.043333,0 -1.986666,0.38629 -2.718333,1.001613 L 12.623333,19.758065 15.615,17.546774 c 0.731667,0.615323 1.675,1.001613 2.718333,1.001613 2.011667,0 3.695,-1.387903 4.0825,-3.225806 z M 15.833333,25 c 0,-1.333871 1.121667,-2.419355 2.5,-2.419355 1.378334,0 2.5,1.085484 2.5,2.419355 0,1.333871 -1.121666,2.419355 -2.5,2.419355 -1.378333,0 -2.5,-1.085484 -2.5,-2.419355 z m 2.5,-12.903226 c 1.378334,0 2.5,1.085484 2.5,2.419355 0,1.333871 -1.121666,2.419355 -2.5,2.419355 -1.378333,0 -2.5,-1.085484 -2.5,-2.419355 0,-1.333871 1.121667,-2.419355 2.5,-2.419355 z M 4.1666667,6.451613 c -1.3783334,0 -2.5,-1.085484 -2.5,-2.419355 0,-1.333871 1.1216666,-2.419355 2.5,-2.419355 1.3783333,0 2.5,1.085484 2.5,2.419355 0,1.333871 -1.1216667,2.419355 -2.5,2.419355 z m 0,10.483871 c -1.3783334,0 -2.5,-1.085484 -2.5,-2.419355 0,-1.333871 1.1216666,-2.419355 2.5,-2.419355 1.3783333,0 2.5,1.085484 2.5,2.419355 0,1.333871 -1.1216667,2.419355 -2.5,2.419355 z m 3.735,-0.666936 C 8.0525,15.969355 8.178333,15.657258 8.249167,15.322581 h 6.001666 c 0.07083,0.334677 0.196667,0.646774 0.3475,0.945967 l -3.348333,2.475 z m 6.6966663,6.979033 c -0.150833,0.299193 -0.276666,0.61129 -0.3475,0.945967 H 8.249167 C 8.178333,23.858871 8.0525,23.546774 7.9016667,23.247581 L 11.25,20.773387 Z M 4.1666667,27.419355 c -1.3783334,0 -2.5,-1.085484 -2.5,-2.419355 0,-1.333871 1.1216666,-2.419355 2.5,-2.419355 1.3783333,0 2.5,1.085484 2.5,2.419355 0,1.333871 -1.1216667,2.419355 -2.5,2.419355 z m 3.735,-0.666936 C 8.0525,26.453226 8.178333,26.141129 8.249167,25.806452 h 6.001666 c 0.07083,0.334677 0.196667,0.646774 0.3475,0.945967 l -3.348333,2.475 z m 6.3491663,7.925 H 8.249167 C 8.178333,34.342742 8.0525,34.030645 7.9016667,33.731452 L 11.25,31.257258 l 3.348333,2.474194 c -0.150833,0.299193 -0.276666,0.61129 -0.3475,0.945967 z M 4.1666667,37.903226 c -1.3783334,0 -2.5,-1.085484 -2.5,-2.419355 0,-1.333871 1.1216666,-2.419355 2.5,-2.419355 1.3783333,0 2.5,1.085484 2.5,2.419355 0,1.333871 -1.1216667,2.419355 -2.5,2.419355 z m 0,10.483871 c -1.3783334,0 -2.5,-1.085484 -2.5,-2.419355 0,-1.333871 1.1216666,-2.419355 2.5,-2.419355 1.3783333,0 2.5,1.085484 2.5,2.419355 0,1.333871 -1.1216667,2.419355 -2.5,2.419355 z M 18.333333,37.903226 c -1.378333,0 -2.5,-1.085484 -2.5,-2.419355 0,-1.333871 1.121667,-2.419355 2.5,-2.419355 1.378334,0 2.5,1.085484 2.5,2.419355 0,1.333871 -1.121666,2.419355 -2.5,2.419355 z m 4.0825,-3.225807 c -0.3875,-1.837903 -2.07,-3.225806 -4.0825,-3.225806 -1.043333,0 -1.986666,0.38629 -2.718333,1.001613 L 12.623333,30.241935 15.615,28.030645 c 0.731667,0.615323 1.675,1.001613 2.718333,1.001613 2.011667,0 3.695,-1.387903 4.0825,-3.225806 h 4.250834 v 8.870967 z M 30,37.903226 c 0,0.445161 -0.374167,0.806451 -0.833333,0.806451 -0.459167,0 -0.833334,-0.36129 -0.833334,-0.806451 V 11.290323 c 0,-0.445162 0.374167,-0.806452 0.833334,-0.806452 0.459166,0 0.833333,0.36129 0.833333,0.806452 z"
     id="path2"
     inkscape:connector-curvature="0"
     style="stroke-width:0.81978232;fill:#d70f51;fill-opacity:1" />
  <path
     d="M 23.333333,17.741935 H 25 v 1.612904 h -1.666667 z"
     id="path4"
     inkscape:connector-curvature="0"
     style="stroke-width:0.81978232;fill:#d70f51;fill-opacity:1" />
  <path
     d="M 23.333333,20.967742 H 25 v 1.612903 h -1.666667 z"
     id="path6"
     inkscape:connector-curvature="0"
     style="stroke-width:0.81978232;fill:#d70f51;fill-opacity:1" />
  <path
     d="M 23.333333,27.419355 H 25 v 1.612903 h -1.666667 z"
     id="path8"
     inkscape:connector-curvature="0"
     style="stroke-width:0.81978232;fill:#d70f51;fill-opacity:1" />
  <path
     d="M 23.333333,30.645161 H 25 v 1.612904 h -1.666667 z"
     id="path10"
     inkscape:connector-curvature="0"
     style="stroke-width:0.81978232;fill:#d70f51;fill-opacity:1" />
</svg>
