<?xml version="1.0" encoding="UTF-8" standalone="no"?>
<svg
   xmlns:dc="http://purl.org/dc/elements/1.1/"
   xmlns:cc="http://creativecommons.org/ns#"
   xmlns:rdf="http://www.w3.org/1999/02/22-rdf-syntax-ns#"
   xmlns:svg="http://www.w3.org/2000/svg"
   xmlns="http://www.w3.org/2000/svg"
   xmlns:sodipodi="http://sodipodi.sourceforge.net/DTD/sodipodi-0.dtd"
   xmlns:inkscape="http://www.inkscape.org/namespaces/inkscape"
   height="400"
   viewBox="0 0 299.99999 299.99999"
   width="400"
   version="1.1"
   id="svg4"
   sodipodi:docname="printing-layout.svg"
   inkscape:version="0.92.4 5da689c313, 2019-01-14">
  <metadata
     id="metadata10">
    <rdf:RDF>
      <cc:Work
         rdf:about="">
        <dc:format>image/svg+xml</dc:format>
        <dc:type
           rdf:resource="http://purl.org/dc/dcmitype/StillImage" />
        <dc:title></dc:title>
      </cc:Work>
    </rdf:RDF>
  </metadata>
  <defs
     id="defs8" />
  <sodipodi:namedview
     pagecolor="#ffffff"
     bordercolor="#666666"
     borderopacity="1"
     objecttolerance="10"
     gridtolerance="10"
     guidetolerance="10"
     inkscape:pageopacity="0"
     inkscape:pageshadow="2"
     inkscape:window-width="1533"
     inkscape:window-height="845"
     id="namedview6"
     showgrid="false"
     units="px"
     inkscape:zoom="0.34570312"
     inkscape:cx="-366.73287"
     inkscape:cy="-66.34616"
     inkscape:window-x="67"
     inkscape:window-y="27"
     inkscape:window-maximized="1"
     inkscape:current-layer="svg4" />
  <path
     d="m 62.109373,88.476541 c -4.923248,0 -8.789062,3.86582 -8.789062,8.78906 0,4.920959 3.865814,8.789059 8.789062,8.789059 4.923248,0 8.789062,-3.8681 8.789062,-8.789059 0,-4.92324 -3.865814,-8.78906 -8.789062,-8.78906 z M 202.73437,53.320291 c -4.92325,0 -8.78906,3.86581 -8.78906,8.78906 0,4.92096 3.86581,8.78906 8.78906,8.78906 4.92325,0 8.78906,-3.8681 8.78906,-8.78906 0,-4.92325 -3.86581,-8.78906 -8.78906,-8.78906 z m 0,0 c -4.92325,0 -8.78906,3.86581 -8.78906,8.78906 0,4.92096 3.86581,8.78906 8.78906,8.78906 4.92325,0 8.78906,-3.8681 8.78906,-8.78906 0,-4.92325 -3.86581,-8.78906 -8.78906,-8.78906 z m 35.15625,140.624999 c -4.92325,0 -8.78906,3.86581 -8.78906,8.78906 0,4.92096 3.86581,8.78906 8.78906,8.78906 4.92325,0 8.78906,-3.8681 8.78906,-8.78906 0,-4.92325 -3.86581,-8.78906 -8.78906,-8.78906 z m 0,-70.3125 c -4.92325,0 -8.78906,3.86581 -8.78906,8.78906 0,4.92096 3.86581,8.78906 8.78906,8.78906 4.92325,0 8.78906,-3.8681 8.78906,-8.78906 0,-4.92325 -3.86581,-8.78906 -8.78906,-8.78906 z M 202.73437,53.320291 c -4.92325,0 -8.78906,3.86581 -8.78906,8.78906 0,4.92096 3.86581,8.78906 8.78906,8.78906 4.92325,0 8.78906,-3.8681 8.78906,-8.78906 0,-4.92325 -3.86581,-8.78906 -8.78906,-8.78906 z m 35.15625,140.624999 c -4.92325,0 -8.78906,3.86581 -8.78906,8.78906 0,4.92096 3.86581,8.78906 8.78906,8.78906 4.92325,0 8.78906,-3.8681 8.78906,-8.78906 0,-4.92325 -3.86581,-8.78906 -8.78906,-8.78906 z m 0,-70.3125 c -4.92325,0 -8.78906,3.86581 -8.78906,8.78906 0,4.92096 3.86581,8.78906 8.78906,8.78906 4.92325,0 8.78906,-3.8681 8.78906,-8.78906 0,-4.92325 -3.86581,-8.78906 -8.78906,-8.78906 z M 202.73437,53.320291 c -4.92325,0 -8.78906,3.86581 -8.78906,8.78906 0,4.92096 3.86581,8.78906 8.78906,8.78906 4.92325,0 8.78906,-3.8681 8.78906,-8.78906 0,-4.92325 -3.86581,-8.78906 -8.78906,-8.78906 z m 35.15625,140.624999 c -4.92325,0 -8.78906,3.86581 -8.78906,8.78906 0,4.92096 3.86581,8.78906 8.78906,8.78906 4.92325,0 8.78906,-3.8681 8.78906,-8.78906 0,-4.92325 -3.86581,-8.78906 -8.78906,-8.78906 z m 0,0 c -4.92325,0 -8.78906,3.86581 -8.78906,8.78906 0,4.92096 3.86581,8.78906 8.78906,8.78906 4.92325,0 8.78906,-3.8681 8.78906,-8.78906 0,-4.92325 -3.86581,-8.78906 -8.78906,-8.78906 z M 299.99999,35.742171 V -1.8566409e-5 H 123.63281 V 136.11371 l -20.21484,20.03861 -0.35248,-0.35248 c 1.93405,3.51563 2.98919,7.55997 2.98919,11.77826 0,14.58893 -11.778254,26.36719 -26.367182,26.36719 -14.591217,0 -26.367187,-11.77826 -26.367187,-26.36719 0,-14.59122 11.77597,-26.36719 26.367187,-26.36719 4.218292,0 8.260345,1.05515 11.77597,2.98691 L 91.113279,143.84534 106.0524,128.7277 V -1.8566409e-5 H 70.896147 V 72.479991 c 10.196685,3.51562 17.578124,13.35983 17.578124,24.78561 0,14.588929 -11.77597,26.367189 -26.367187,26.367189 -14.588928,0 -26.367186,-11.77826 -26.367186,-26.367189 0,-11.42578 7.383727,-21.26999 17.578124,-24.78561 V -1.8566409e-5 H 0 V 229.10153 h 72.480009 c 3.515625,-10.19668 13.359832,-17.57812 24.785613,-17.57812 14.591218,0 26.367188,11.77597 26.367188,26.36719 0,14.58893 -11.77597,26.36718 -26.367188,26.36718 -11.425781,0 -21.269988,-7.38372 -24.785613,-17.57812 H 0 v 53.32031 H 141.21093 V 92.518591 l 36.03516,-23.9067 c -0.52643,-2.10801 -0.87891,-4.2183 -0.87891,-6.50254 0,-14.59121 11.77597,-26.36718 26.36719,-26.36718 14.59122,0 26.36719,11.77597 26.36719,26.36718 0,14.58893 -11.77597,26.36719 -26.36719,26.36719 -5.80216,0 -11.24954,-1.93405 -15.64407,-5.27344 l -28.30124,18.807219 v 197.98965 h 17.57812 V 162.83109 l 36.03516,-23.90671 c -0.52643,-2.108 -0.87891,-4.21829 -0.87891,-6.50253 0,-14.59121 11.77597,-26.36719 26.36719,-26.36719 14.59121,0 26.36718,11.77598 26.36718,26.36719 0,14.58893 -11.77597,26.36719 -26.36718,26.36719 -5.80216,0 -11.24954,-1.93405 -15.64408,-5.27344 l -28.30123,18.80722 v 127.67715 h 17.57812 v -53.32031 h 17.57813 v 53.32031 h 17.57812 v -53.32031 h 17.57812 v 53.32031 h 35.74219 v -88.47656 h -37.32376 c -3.51562,10.1944 -13.35983,17.57812 -24.78561,17.57812 -14.59122,0 -26.36719,-11.77825 -26.36719,-26.36718 0,-14.59122 11.77597,-26.36719 26.36719,-26.36719 11.42578,0 21.26999,7.38144 24.78561,17.57813 h 37.32376 V 88.476541 h -53.32031 v -17.57813 h 53.32031 V 53.320291 H 246.67968 V 35.742171 Z M 237.89062,193.94529 c -4.92325,0 -8.78906,3.86581 -8.78906,8.78906 0,4.92096 3.86581,8.78906 8.78906,8.78906 4.92325,0 8.78906,-3.8681 8.78906,-8.78906 0,-4.92325 -3.86581,-8.78906 -8.78906,-8.78906 z m 0,0 c -4.92325,0 -8.78906,3.86581 -8.78906,8.78906 0,4.92096 3.86581,8.78906 8.78906,8.78906 4.92325,0 8.78906,-3.8681 8.78906,-8.78906 0,-4.92325 -3.86581,-8.78906 -8.78906,-8.78906 z M 97.265622,229.10153 c -4.923248,0 -8.789062,3.86582 -8.789062,8.78907 0,4.92096 3.865814,8.78906 8.789062,8.78906 4.923248,0 8.789058,-3.8681 8.789058,-8.78906 0,-4.92325 -3.86581,-8.78907 -8.789058,-8.78907 z M 237.89062,123.63279 c -4.92325,0 -8.78906,3.86581 -8.78906,8.78906 0,4.92096 3.86581,8.78906 8.78906,8.78906 4.92325,0 8.78906,-3.8681 8.78906,-8.78906 0,-4.92325 -3.86581,-8.78906 -8.78906,-8.78906 z m 0,70.3125 c -4.92325,0 -8.78906,3.86581 -8.78906,8.78906 0,4.92096 3.86581,8.78906 8.78906,8.78906 4.92325,0 8.78906,-3.8681 8.78906,-8.78906 0,-4.92325 -3.86581,-8.78906 -8.78906,-8.78906 z M 202.73437,53.320291 c -4.92325,0 -8.78906,3.86581 -8.78906,8.78906 0,4.92096 3.86581,8.78906 8.78906,8.78906 4.92325,0 8.78906,-3.8681 8.78906,-8.78906 0,-4.92325 -3.86581,-8.78906 -8.78906,-8.78906 z m 35.15625,70.312499 c -4.92325,0 -8.78906,3.86581 -8.78906,8.78906 0,4.92096 3.86581,8.78906 8.78906,8.78906 4.92325,0 8.78906,-3.8681 8.78906,-8.78906 0,-4.92325 -3.86581,-8.78906 -8.78906,-8.78906 z m 0,70.3125 c -4.92325,0 -8.78906,3.86581 -8.78906,8.78906 0,4.92096 3.86581,8.78906 8.78906,8.78906 4.92325,0 8.78906,-3.8681 8.78906,-8.78906 0,-4.92325 -3.86581,-8.78906 -8.78906,-8.78906 z M 202.73437,53.320291 c -4.92325,0 -8.78906,3.86581 -8.78906,8.78906 0,4.92096 3.86581,8.78906 8.78906,8.78906 4.92325,0 8.78906,-3.8681 8.78906,-8.78906 0,-4.92325 -3.86581,-8.78906 -8.78906,-8.78906 z m 35.15625,70.312499 c -4.92325,0 -8.78906,3.86581 -8.78906,8.78906 0,4.92096 3.86581,8.78906 8.78906,8.78906 4.92325,0 8.78906,-3.8681 8.78906,-8.78906 0,-4.92325 -3.86581,-8.78906 -8.78906,-8.78906 z M 202.73437,53.320291 c -4.92325,0 -8.78906,3.86581 -8.78906,8.78906 0,4.92096 3.86581,8.78906 8.78906,8.78906 4.92325,0 8.78906,-3.8681 8.78906,-8.78906 0,-4.92325 -3.86581,-8.78906 -8.78906,-8.78906 z M 79.687498,158.78904 c -4.923249,0 -8.789063,3.86581 -8.789063,8.78906 0,4.92096 3.865814,8.78906 8.789063,8.78906 4.923248,0 8.789062,-3.8681 8.789062,-8.78906 0,-4.92325 -3.865814,-8.78906 -8.789062,-8.78906 z M 62.109373,88.476541 c -4.923248,0 -8.789062,3.86582 -8.789062,8.78906 0,4.920959 3.865814,8.789059 8.789062,8.789059 4.923248,0 8.789062,-3.8681 8.789062,-8.789059 0,-4.92324 -3.865814,-8.78906 -8.789062,-8.78906 z m 0,0"
     id="path2"
     inkscape:connector-curvature="0"
     style="stroke-width:0.5859375" />
</svg>
