<?xml version="1.0" encoding="UTF-8" standalone="no"?>
<!-- Generator: Adobe Illustrator 16.0.0, SVG Export Plug-In . SVG Version: 6.00 Build 0)  -->

<svg
   xmlns:dc="http://purl.org/dc/elements/1.1/"
   xmlns:cc="http://creativecommons.org/ns#"
   xmlns:rdf="http://www.w3.org/1999/02/22-rdf-syntax-ns#"
   xmlns:svg="http://www.w3.org/2000/svg"
   xmlns="http://www.w3.org/2000/svg"
   xmlns:sodipodi="http://sodipodi.sourceforge.net/DTD/sodipodi-0.dtd"
   xmlns:inkscape="http://www.inkscape.org/namespaces/inkscape"
   version="1.1"
   id="Capa_1"
   x="0px"
   y="0px"
   width="400"
   height="400"
   viewBox="0 0 400 400"
   xml:space="preserve"
   sodipodi:docname="printing.svg"
   inkscape:version="0.92.4 5da689c313, 2019-01-14"><metadata
   id="metadata41"><rdf:RDF><cc:Work
       rdf:about=""><dc:format>image/svg+xml</dc:format><dc:type
         rdf:resource="http://purl.org/dc/dcmitype/StillImage" /><dc:title></dc:title></cc:Work></rdf:RDF></metadata><defs
   id="defs39" /><sodipodi:namedview
   pagecolor="#ffffff"
   bordercolor="#666666"
   borderopacity="1"
   objecttolerance="10"
   gridtolerance="10"
   guidetolerance="10"
   inkscape:pageopacity="0"
   inkscape:pageshadow="2"
   inkscape:window-width="1533"
   inkscape:window-height="845"
   id="namedview37"
   showgrid="false"
   fit-margin-top="0"
   fit-margin-left="0"
   fit-margin-right="0"
   fit-margin-bottom="0"
   inkscape:zoom="0.49676158"
   inkscape:cx="-175.01647"
   inkscape:cy="219.53849"
   inkscape:window-x="67"
   inkscape:window-y="27"
   inkscape:window-maximized="1"
   inkscape:current-layer="Capa_1" />
<g
   id="g4"
   transform="matrix(0.841967,0,0,0.9121258,0,-16.66545)">
	<path
   d="M 458.959,217.124 C 448.2,206.366 435.305,200.99 420.269,200.99 h -18.268 v -73.089 c 0,-7.611 -1.91,-15.99 -5.719,-25.122 -3.806,-9.136 -8.371,-16.368 -13.699,-21.698 L 339.18,37.683 C 333.852,32.358 326.62,27.788 317.488,23.979 308.35,20.174 299.98,18.271 292.362,18.271 H 100.5 c -7.614,0 -14.087,2.663 -19.417,7.993 -5.327,5.327 -7.994,11.799 -7.994,19.414 V 200.99 H 54.818 c -15.037,0 -27.932,5.379 -38.688,16.134 C 5.376,227.876 0,240.772 0,255.81 v 118.773 c 0,2.478 0.905,4.609 2.712,6.426 1.809,1.804 3.951,2.707 6.423,2.707 h 63.954 v 45.68 c 0,7.617 2.664,14.089 7.994,19.417 5.33,5.325 11.803,7.994 19.417,7.994 h 274.083 c 7.611,0 14.093,-2.669 19.418,-7.994 5.328,-5.332 7.994,-11.8 7.994,-19.417 v -45.68 h 63.953 c 2.471,0 4.613,-0.903 6.42,-2.707 1.807,-1.816 2.71,-3.948 2.71,-6.426 V 255.81 c 0.004,-15.038 -5.37,-27.934 -16.119,-38.686 z m -93.51,203.138 H 109.636 v -73.087 h 255.813 z m 0,-182.725 H 109.636 V 54.816 h 182.726 v 45.679 c 0,7.614 2.669,14.083 7.991,19.414 5.328,5.33 11.799,7.993 19.417,7.993 h 45.679 z m 67.667,31.119 c -3.614,3.614 -7.898,5.428 -12.847,5.428 -4.949,0 -9.233,-1.813 -12.848,-5.428 -3.613,-3.61 -5.42,-7.898 -5.42,-12.847 0,-4.949 1.807,-9.232 5.42,-12.847 3.614,-3.617 7.898,-5.426 12.848,-5.426 4.948,0 9.232,1.809 12.847,5.426 3.613,3.614 5.427,7.898 5.427,12.847 0,4.949 -1.81,9.237 -5.427,12.847 z"
   id="path2"
   inkscape:connector-curvature="0" />
</g>
<g
   id="g6"
   transform="translate(-18,-57.076996)">
</g>
<g
   id="g8"
   transform="translate(-18,-57.076996)">
</g>
<g
   id="g10"
   transform="translate(-18,-57.076996)">
</g>
<g
   id="g12"
   transform="translate(-18,-57.076996)">
</g>
<g
   id="g14"
   transform="translate(-18,-57.076996)">
</g>
<g
   id="g16"
   transform="translate(-18,-57.076996)">
</g>
<g
   id="g18"
   transform="translate(-18,-57.076996)">
</g>
<g
   id="g20"
   transform="translate(-18,-57.076996)">
</g>
<g
   id="g22"
   transform="translate(-18,-57.076996)">
</g>
<g
   id="g24"
   transform="translate(-18,-57.076996)">
</g>
<g
   id="g26"
   transform="translate(-18,-57.076996)">
</g>
<g
   id="g28"
   transform="translate(-18,-57.076996)">
</g>
<g
   id="g30"
   transform="translate(-18,-57.076996)">
</g>
<g
   id="g32"
   transform="translate(-18,-57.076996)">
</g>
<g
   id="g34"
   transform="translate(-18,-57.076996)">
</g>
</svg>