<?xml version="1.0" encoding="UTF-8" standalone="no"?>
<!-- Generator: Adobe Illustrator 16.0.0, SVG Export Plug-In . SVG Version: 6.00 Build 0)  -->

<svg
   xmlns:dc="http://purl.org/dc/elements/1.1/"
   xmlns:cc="http://creativecommons.org/ns#"
   xmlns:rdf="http://www.w3.org/1999/02/22-rdf-syntax-ns#"
   xmlns:svg="http://www.w3.org/2000/svg"
   xmlns="http://www.w3.org/2000/svg"
   xmlns:sodipodi="http://sodipodi.sourceforge.net/DTD/sodipodi-0.dtd"
   xmlns:inkscape="http://www.inkscape.org/namespaces/inkscape"
   version="1.1"
   id="Capa_1"
   x="0px"
   y="0px"
   width="400"
   height="400"
   viewBox="0 0 400 400"
   xml:space="preserve"
   sodipodi:docname="routing.svg"
   inkscape:version="0.92.4 5da689c313, 2019-01-14"><metadata
   id="metadata48"><rdf:RDF><cc:Work
       rdf:about=""><dc:format>image/svg+xml</dc:format><dc:type
         rdf:resource="http://purl.org/dc/dcmitype/StillImage" /><dc:title></dc:title></cc:Work></rdf:RDF></metadata><defs
   id="defs46" /><sodipodi:namedview
   pagecolor="#ffffff"
   bordercolor="#666666"
   borderopacity="1"
   objecttolerance="10"
   gridtolerance="10"
   guidetolerance="10"
   inkscape:pageopacity="0"
   inkscape:pageshadow="2"
   inkscape:window-width="1533"
   inkscape:window-height="845"
   id="namedview44"
   showgrid="false"
   fit-margin-top="0"
   fit-margin-left="0"
   fit-margin-right="0"
   fit-margin-bottom="0"
   inkscape:zoom="0.70710678"
   inkscape:cx="165.90086"
   inkscape:cy="295.99286"
   inkscape:window-x="67"
   inkscape:window-y="27"
   inkscape:window-maximized="1"
   inkscape:current-layer="Capa_1" />
<g
   id="g11"
   transform="matrix(8.5102762,0,0,8.5108194,0,-0.00851082)">
	<g
   id="Layer_1_164_">
		<g
   id="g8">
			<path
   d="M 44.863,0.001 H 2.137 C 0.955,0.001 0,0.958 0,2.137 V 28.29 c 0.597,-0.319 1.269,-0.516 1.992,-0.516 h 2.28 v -1.068 h 6.409 c 0.591,0 1.068,-0.479 1.068,-1.068 0,-0.589 -0.478,-1.068 -1.068,-1.068 H 4.272 V 12.82 h 7.478 v 6.409 c 0,0.59 0.478,1.068 1.068,1.068 h 5.341 c 0.591,0 1.068,-0.478 1.068,-1.068 0,-0.59 -0.478,-1.068 -1.068,-1.068 h -4.272 v -6.41 c 0,-0.59 -0.479,-1.068 -1.068,-1.068 H 4.272 V 4.274 h 13.887 v 9.613 c 0,0.59 0.478,1.068 1.068,1.068 0.59,0 1.068,-0.479 1.068,-1.068 V 4.274 h 10.146 v 6.409 h -3.738 c -0.59,0 -1.066,0.479 -1.066,1.068 0,0.589 0.477,1.068 1.066,1.068 h 9.613 c 0.591,0 1.068,-0.479 1.068,-1.068 0,-0.589 -0.479,-1.068 -1.068,-1.068 H 32.578 V 4.274 h 10.148 v 7.738 c 0.111,0.059 0.225,0.118 0.33,0.189 L 47,14.831 V 2.137 C 47,0.958 46.042,0.001 44.863,0.001 Z"
   id="path2"
   inkscape:connector-curvature="0" />
			<path
   d="m 42.729,24.308 v 4.534 H 35.25 V 24.57 c 0,-0.59 -0.479,-1.067 -1.068,-1.067 -0.589,0 -1.068,0.479 -1.068,1.067 v 12.818 c 0,0.59 0.479,1.068 1.068,1.068 0.592,0 1.068,-0.479 1.068,-1.068 V 30.98 h 7.479 V 42.73 H 25.637 v -8.545 h 3.204 c 0.591,0 1.068,-0.479 1.068,-1.068 0,-0.589 -0.478,-1.068 -1.068,-1.068 h -4.272 c -0.591,0 -1.068,0.479 -1.068,1.068 v 4.271 h -9.613 c -0.591,0 -1.068,0.479 -1.068,1.068 0,0.589 0.478,1.068 1.068,1.068 H 23.5 v 3.203 H 4.272 V 36.319 H 1.992 C 1.268,36.319 0.596,36.121 0,35.801 v 9.062 C 0,46.044 0.955,47 2.137,47 h 42.726 c 1.18,0 2.138,-0.957 2.138,-2.136 V 21.49 l -3.944,2.631 c -0.107,0.069 -0.219,0.128 -0.328,0.187 z"
   id="path4"
   inkscape:connector-curvature="0" />
			<path
   d="m 46.286,16.827 -4.272,-2.85 c -0.492,-0.329 -1.123,-0.36 -1.646,-0.08 -0.519,0.279 -0.845,0.822 -0.845,1.413 v 0.714 H 26.848 c -1.18,0 -2.138,0.957 -2.138,2.136 v 6.409 h -6.409 c -1.179,0 -2.136,0.957 -2.136,2.136 V 29.91 H 2.137 C 0.955,29.91 0,30.867 0,32.046 c 0,1.18 0.955,2.137 2.137,2.137 h 16.164 c 1.181,0 2.137,-0.957 2.137,-2.137 v -3.205 h 6.41 c 1.18,0 2.135,-0.957 2.135,-2.136 v -6.409 h 10.541 v 0.713 c 0,0.591 0.326,1.134 0.845,1.413 0.237,0.127 0.497,0.189 0.758,0.189 0.312,0 0.619,-0.09 0.89,-0.269 l 4.271,-2.85 c 0.443,-0.297 0.714,-0.797 0.714,-1.333 -0.001,-0.536 -0.272,-1.035 -0.716,-1.332 z"
   id="path6"
   inkscape:connector-curvature="0" />
		</g>
	</g>
</g>
<g
   id="g13"
   transform="translate(-18,370.999)">
</g>
<g
   id="g15"
   transform="translate(-18,370.999)">
</g>
<g
   id="g17"
   transform="translate(-18,370.999)">
</g>
<g
   id="g19"
   transform="translate(-18,370.999)">
</g>
<g
   id="g21"
   transform="translate(-18,370.999)">
</g>
<g
   id="g23"
   transform="translate(-18,370.999)">
</g>
<g
   id="g25"
   transform="translate(-18,370.999)">
</g>
<g
   id="g27"
   transform="translate(-18,370.999)">
</g>
<g
   id="g29"
   transform="translate(-18,370.999)">
</g>
<g
   id="g31"
   transform="translate(-18,370.999)">
</g>
<g
   id="g33"
   transform="translate(-18,370.999)">
</g>
<g
   id="g35"
   transform="translate(-18,370.999)">
</g>
<g
   id="g37"
   transform="translate(-18,370.999)">
</g>
<g
   id="g39"
   transform="translate(-18,370.999)">
</g>
<g
   id="g41"
   transform="translate(-18,370.999)">
</g>
</svg>