<?xml version="1.0" encoding="UTF-8" standalone="no"?>
<svg
   xmlns:dc="http://purl.org/dc/elements/1.1/"
   xmlns:cc="http://creativecommons.org/ns#"
   xmlns:rdf="http://www.w3.org/1999/02/22-rdf-syntax-ns#"
   xmlns:svg="http://www.w3.org/2000/svg"
   xmlns="http://www.w3.org/2000/svg"
   xmlns:sodipodi="http://sodipodi.sourceforge.net/DTD/sodipodi-0.dtd"
   xmlns:inkscape="http://www.inkscape.org/namespaces/inkscape"
   id="Layer_1"
   enable-background="new 0 0 64 64"
   height="400.00003"
   viewBox="0 0 50 50.000004"
   width="400"
   version="1.1"
   sodipodi:docname="simulating-swl.svg"
   inkscape:version="0.92.4 5da689c313, 2019-01-14">
  <metadata
     id="metadata37">
    <rdf:RDF>
      <cc:Work
         rdf:about="">
        <dc:format>image/svg+xml</dc:format>
        <dc:type
           rdf:resource="http://purl.org/dc/dcmitype/StillImage" />
        <dc:title></dc:title>
      </cc:Work>
    </rdf:RDF>
  </metadata>
  <defs
     id="defs35" />
  <sodipodi:namedview
     pagecolor="#ffffff"
     bordercolor="#666666"
     borderopacity="1"
     objecttolerance="10"
     gridtolerance="10"
     guidetolerance="10"
     inkscape:pageopacity="0"
     inkscape:pageshadow="2"
     inkscape:window-width="1533"
     inkscape:window-height="845"
     id="namedview33"
     showgrid="false"
     fit-margin-top="0"
     fit-margin-left="0"
     fit-margin-right="0"
     fit-margin-bottom="0"
     inkscape:zoom="0.4609375"
     inkscape:cx="256"
     inkscape:cy="256"
     inkscape:window-x="67"
     inkscape:window-y="27"
     inkscape:window-maximized="1"
     inkscape:current-layer="Layer_1" />
  <path
     d="m 26.145833,12.21617 -1.041666,-0.454132 -7.395834,3.996366 v 3.996367 L 21.875,21.752955 v -2.36149 c 0,-0.635785 0.416667,-1.180744 0.9375,-1.544051 l 7.395833,-3.996366 c 0.625,-0.363307 1.354167,-0.363307 2.083334,-0.09083 l 1.041666,0.454133 5.3125,-2.906449 V 7.2207107 L 28.125,12.21617 c -0.625,0.181653 -1.354167,0.27248 -1.979167,0 z"
     id="path2"
     inkscape:connector-curvature="0"
     style="stroke-width:0.97268164" />
  <path
     d="M 18.854167,8.5831087 17.8125,8.1289767 10.416667,12.125344 v 3.996367 L 15.625,18.664853 v -2.997275 c 0,-0.635786 0.416667,-1.180745 0.9375,-1.544051 l 7.395833,-3.996367 c 0.625,-0.3633063 1.354167,-0.3633063 2.083334,-0.09083 l 1.041666,0.454132 3.125,-1.4532243 v -4.995455 l -9.479166,4.4505 c -0.520834,0.272479 -1.25,0.363306 -1.875,0.09083 z"
     id="path4"
     inkscape:connector-curvature="0"
     style="stroke-width:0.97268164" />
  <path
     d="m 8.3333333,12.125344 c 0,-0.635786 0.4166667,-1.180745 0.9375,-1.544051 L 16.666667,6.5849257 c 0.625,-0.363306 1.354166,-0.363306 2.083333,-0.09083 l 1.041667,0.454133 9.895833,-4.722979 -4.166667,-2.08900995 c -0.3125,-0.181653 -0.729166,-0.181653 -1.041666,0 L 1.0416667,11.580384 8.3333333,15.122619 Z"
     id="path6"
     inkscape:connector-curvature="0"
     style="stroke-width:0.97268164" />
  <path
     d="m 32.291667,3.4968237 v 4.541326 l 4.791666,-2.270663 z"
     id="path8"
     inkscape:connector-curvature="0"
     style="stroke-width:0.97268164" />
  <path
     d="m 0,13.124435 v 3.360582 L 4.4791667,18.4832 C 5.5208333,18.937333 6.25,19.845598 6.25,20.935516 v 0.817439 c 1.6666667,0.544959 2.5,2.08901 1.875,3.451408 -0.625,1.453224 -2.3958333,2.179836 -3.9583333,1.634877 -1.5625,-0.544959 -2.5,-2.08901 -1.875,-3.451408 0.3125,-0.817438 1.0416666,-1.362398 1.875,-1.634877 v -0.817439 c 0,-0.363306 -0.2083334,-0.635785 -0.625,-0.817439 L 0,18.4832 v 19.255223 c 0,0.363306 0.20833333,0.635785 0.52083333,0.817438 L 23.958333,50.000003 V 47.547687 L 14.166667,42.915534 C 13.125,42.461402 12.5,41.553137 12.5,40.554045 v -3.360582 c 0,-0.363306 -0.208333,-0.635785 -0.520833,-0.817438 L 8.3333333,34.468668 c -1.3541666,1.180745 -3.4375,1.089918 -4.7916666,0 -1.3541667,-1.089918 -1.25,-2.997275 0,-4.17802 1.25,-1.180745 3.4375,-1.089918 4.7916666,0 0.7291667,0.635786 1.1458334,1.634877 0.9375,2.543142 l 3.7499997,1.998184 c 0.9375,0.454133 1.5625,1.362398 1.5625,2.361489 v 3.360582 c 0,0.363306 0.208334,0.635785 0.520834,0.817438 l 8.854166,4.17802 V 36.739331 L 14.166667,32.107178 C 13.125,31.653046 12.5,30.74478 12.5,29.745689 v -1.816531 c -1.666667,-0.544959 -2.5,-2.08901 -1.875,-3.451407 0.625,-1.453225 2.395833,-2.179837 3.958333,-1.634878 1.666667,0.544959 2.5,2.08901 1.875,3.451408 -0.3125,0.817439 -1.041666,1.362398 -1.875,1.634877 v 1.816531 c 0,0.363306 0.208334,0.635785 0.520834,0.817438 l 8.854166,4.17802 V 24.75023 c -0.208333,0 -0.3125,-0.09083 -0.520833,-0.181653 z"
     id="path10"
     inkscape:connector-curvature="0"
     style="stroke-width:0.97268164" />
  <path
     d="M 40.625,7.4931907 V 10.12716 l 2.5,-1.3623983 z"
     id="path12"
     inkscape:connector-curvature="0"
     style="stroke-width:0.97268164" />
  <path
     d="m 46.875,10.581293 v 1.998183 l 2.083333,-0.999092 z"
     id="path14"
     inkscape:connector-curvature="0"
     style="stroke-width:0.97268164" />
  <ellipse
     cx="31.25"
     cy="27.929159"
     id="circle16"
     rx="1.0416666"
     ry="0.90826523"
     style="stroke-width:0.97268164" />
  <path
     d="M 50,31.01726 V 13.124435 L 26.5625,24.568577 c -0.104167,0.09083 -0.3125,0.09083 -0.520833,0.181653 v 4.4505 L 28.125,28.292464 c 0,-0.09083 0,-0.181653 0,-0.363306 0,-1.544051 1.354167,-2.724795 3.125,-2.724795 1.770833,0 3.125,1.180744 3.125,2.724795 0,1.544051 -1.354167,2.724796 -3.125,2.724796 -0.833333,0 -1.5625,-0.27248 -2.1875,-0.726612 l -3.020833,1.271571 v 8.810173 l 8.854166,-4.17802 c 0.3125,-0.181653 0.520834,-0.454133 0.520834,-0.817439 v -3.269755 c 0,-0.999092 0.625,-1.998183 1.770833,-2.452316 l 4.583333,-1.998183 c 0,-0.09083 0,-0.181653 0,-0.363306 0,-1.544051 1.354167,-2.724796 3.125,-2.724796 1.770834,0 3.125,1.180745 3.125,2.724796 0,1.54405 -1.354166,2.724795 -3.125,2.724795 -0.833333,0 -1.5625,-0.272479 -2.1875,-0.726612 L 38.125,30.926434 C 37.8125,31.108087 37.5,31.380566 37.5,31.743872 v 3.269755 c 0,0.999092 -0.625,1.907357 -1.666667,2.36149 l -9.791666,4.722979 v 7.901907 l 23.4375,-11.444142 C 49.791667,38.374208 50,38.101729 50,37.738423 v -4.722979 l -4.166667,1.81653 v 0.363306 c 0,1.544051 -1.354166,2.724796 -3.125,2.724796 -1.770833,0 -3.125,-1.180745 -3.125,-2.724796 0,-1.544051 1.354167,-2.724796 3.125,-2.724796 0.833334,0 1.5625,0.27248 2.1875,0.726613 z"
     id="path18"
     inkscape:connector-curvature="0"
     style="stroke-width:0.97268164" />
  <ellipse
     cx="13.541667"
     cy="25.204363"
     id="circle20"
     rx="1.0416666"
     ry="0.90826523"
     style="stroke-width:0.97268164" />
  <ellipse
     cx="44.791668"
     cy="27.020891"
     id="circle22"
     rx="1.0416666"
     ry="0.90826523"
     style="stroke-width:0.97268164" />
  <ellipse
     cx="42.708332"
     cy="35.195282"
     id="circle24"
     rx="1.0416666"
     ry="0.90826523"
     style="stroke-width:0.97268164" />
  <ellipse
     cx="6.25"
     cy="32.470486"
     id="circle26"
     rx="1.0416666"
     ry="0.90826523"
     style="stroke-width:0.97268164" />
  <ellipse
     cx="5.2083335"
     cy="24.296099"
     id="circle28"
     rx="1.0416666"
     ry="0.90826523"
     style="stroke-width:0.97268164" />
  <path
     d="M 44.791667,9.9455067 34.375,15.758404 c -0.625,0.363307 -1.354167,0.363307 -2.083333,0.09083 L 31.25,15.395098 23.958333,19.391465 v 3.360582 l 0.520834,0.272479 c 0.3125,0.181653 0.729166,0.181653 1.041666,0 l 19.270834,-9.445958 z"
     id="path30"
     inkscape:connector-curvature="0"
     style="stroke-width:0.97268164" />
</svg>
