<?xml version="1.0" encoding="UTF-8" standalone="no"?>
<!-- Generator: Adobe Illustrator 16.0.0, SVG Export Plug-In . SVG Version: 6.00 Build 0)  -->

<svg
   xmlns:dc="http://purl.org/dc/elements/1.1/"
   xmlns:cc="http://creativecommons.org/ns#"
   xmlns:rdf="http://www.w3.org/1999/02/22-rdf-syntax-ns#"
   xmlns:svg="http://www.w3.org/2000/svg"
   xmlns="http://www.w3.org/2000/svg"
   xmlns:sodipodi="http://sodipodi.sourceforge.net/DTD/sodipodi-0.dtd"
   xmlns:inkscape="http://www.inkscape.org/namespaces/inkscape"
   version="1.1"
   id="Capa_1"
   x="0px"
   y="0px"
   width="400"
   height="400"
   viewBox="0 0 399.99999 399.99999"
   xml:space="preserve"
   sodipodi:docname="beaker.svg"
   inkscape:version="0.92.4 5da689c313, 2019-01-14"><metadata
   id="metadata41"><rdf:RDF><cc:Work
       rdf:about=""><dc:format>image/svg+xml</dc:format><dc:type
         rdf:resource="http://purl.org/dc/dcmitype/StillImage" /><dc:title></dc:title></cc:Work></rdf:RDF></metadata><defs
   id="defs39" /><sodipodi:namedview
   pagecolor="#ffffff"
   bordercolor="#666666"
   borderopacity="1"
   objecttolerance="10"
   gridtolerance="10"
   guidetolerance="10"
   inkscape:pageopacity="0"
   inkscape:pageshadow="2"
   inkscape:window-width="1533"
   inkscape:window-height="845"
   id="namedview37"
   showgrid="false"
   fit-margin-top="0"
   fit-margin-left="0"
   fit-margin-right="0"
   fit-margin-bottom="0"
   inkscape:zoom="0.53815421"
   inkscape:cx="219.26801"
   inkscape:cy="219.26801"
   inkscape:window-x="67"
   inkscape:window-y="27"
   inkscape:window-maximized="1"
   inkscape:current-layer="Capa_1" />
<g
   id="g4"
   transform="matrix(0.96005852,0,0,0.9121258,-10.509657,0)">
	<path
   d="M 417.698,376.865 274.08,150.467 V 36.545 h 18.274 c 4.948,0 9.236,-1.812 12.847,-5.428 3.621,-3.614 5.428,-7.898 5.428,-12.847 0,-4.949 -1.807,-9.231 -5.428,-12.847 C 301.591,1.807 297.303,0 292.354,0 H 146.177 c -4.952,0 -9.234,1.807 -12.85,5.424 -3.617,3.615 -5.424,7.898 -5.424,12.847 0,4.949 1.807,9.233 5.424,12.847 3.619,3.616 7.902,5.428 12.85,5.428 h 18.271 V 150.464 L 20.838,376.862 c -10.656,16.946 -12.703,31.463 -6.136,43.543 6.567,12.087 19.939,18.131 40.113,18.131 h 328.911 c 20.17,0 33.54,-6.044 40.104,-18.131 6.571,-12.08 4.524,-26.593 -6.132,-43.54 z m -300.071,-84.51 77.658,-122.481 5.709,-8.853 V 150.46 36.542 h 36.541 v 113.918 10.561 l 5.708,8.853 77.662,122.481 z"
   id="path2"
   inkscape:connector-curvature="0" />
</g>
<g
   id="g6"
   transform="translate(3.2305276e-7,-38.536011)">
</g>
<g
   id="g8"
   transform="translate(3.2305276e-7,-38.536011)">
</g>
<g
   id="g10"
   transform="translate(3.2305276e-7,-38.536011)">
</g>
<g
   id="g12"
   transform="translate(3.2305276e-7,-38.536011)">
</g>
<g
   id="g14"
   transform="translate(3.2305276e-7,-38.536011)">
</g>
<g
   id="g16"
   transform="translate(3.2305276e-7,-38.536011)">
</g>
<g
   id="g18"
   transform="translate(3.2305276e-7,-38.536011)">
</g>
<g
   id="g20"
   transform="translate(3.2305276e-7,-38.536011)">
</g>
<g
   id="g22"
   transform="translate(3.2305276e-7,-38.536011)">
</g>
<g
   id="g24"
   transform="translate(3.2305276e-7,-38.536011)">
</g>
<g
   id="g26"
   transform="translate(3.2305276e-7,-38.536011)">
</g>
<g
   id="g28"
   transform="translate(3.2305276e-7,-38.536011)">
</g>
<g
   id="g30"
   transform="translate(3.2305276e-7,-38.536011)">
</g>
<g
   id="g32"
   transform="translate(3.2305276e-7,-38.536011)">
</g>
<g
   id="g34"
   transform="translate(3.2305276e-7,-38.536011)">
</g>
</svg>