<?xml version="1.0" encoding="UTF-8" standalone="no"?>
<!-- Generator: Adobe Illustrator 19.0.0, SVG Export Plug-In . SVG Version: 6.00 Build 0)  -->

<svg
   xmlns:dc="http://purl.org/dc/elements/1.1/"
   xmlns:cc="http://creativecommons.org/ns#"
   xmlns:rdf="http://www.w3.org/1999/02/22-rdf-syntax-ns#"
   xmlns:svg="http://www.w3.org/2000/svg"
   xmlns="http://www.w3.org/2000/svg"
   xmlns:sodipodi="http://sodipodi.sourceforge.net/DTD/sodipodi-0.dtd"
   xmlns:inkscape="http://www.inkscape.org/namespaces/inkscape"
   version="1.1"
   id="Layer_1"
   x="0px"
   y="0px"
   viewBox="0 0 400 400"
   xml:space="preserve"
   sodipodi:docname="timing.svg"
   width="400"
   height="400"
   inkscape:version="0.92.4 5da689c313, 2019-01-14"><metadata
   id="metadata49"><rdf:RDF><cc:Work
       rdf:about=""><dc:format>image/svg+xml</dc:format><dc:type
         rdf:resource="http://purl.org/dc/dcmitype/StillImage" /><dc:title></dc:title></cc:Work></rdf:RDF></metadata><defs
   id="defs47" /><sodipodi:namedview
   pagecolor="#ffffff"
   bordercolor="#666666"
   borderopacity="1"
   objecttolerance="10"
   gridtolerance="10"
   guidetolerance="10"
   inkscape:pageopacity="0"
   inkscape:pageshadow="2"
   inkscape:window-width="1533"
   inkscape:window-height="845"
   id="namedview45"
   showgrid="false"
   fit-margin-top="0"
   fit-margin-left="0"
   fit-margin-right="0"
   fit-margin-bottom="0"
   inkscape:zoom="0.4609375"
   inkscape:cx="256"
   inkscape:cy="256"
   inkscape:window-x="67"
   inkscape:window-y="27"
   inkscape:window-maximized="1"
   inkscape:current-layer="Layer_1" />
<g
   id="g12"
   transform="matrix(0.83347876,0,0,0.78125,-13.371083,0)">
	<g
   id="g10">
		<g
   id="g8">
			<path
   d="m 469.337,154.624 c 6.818,0 13.636,-2.594 18.833,-7.791 10.385,-10.377 10.385,-27.281 0,-37.666 L 454.037,75.034 c -10.385,-10.377 -27.29,-10.377 -37.666,0 -8.269,8.269 -9.847,20.608 -4.958,30.558 l -13.85,13.85 C 367.415,94.405 330.568,77.168 290.137,70.904 V 51.2 H 306.7 c 9.685,0 17.57,-7.876 17.57,-17.562 V 17.57 C 324.27,7.885 316.385,0 306.7,0 H 205.298 c -9.685,0 -17.562,7.885 -17.562,17.57 v 16.068 c 0,9.685 7.876,17.562 17.562,17.562 h 16.572 v 19.703 c -40.431,6.263 -77.286,23.501 -107.426,48.538 l -13.858,-13.85 c 4.89,-9.95 3.311,-22.289 -4.949,-30.558 -10.385,-10.377 -27.29,-10.377 -37.666,0 l -34.133,34.133 c -10.394,10.385 -10.394,27.29 0,37.666 5.188,5.197 12.006,7.791 18.833,7.791 6.025,0 11.981,-2.15 16.888,-6.195 l 14.694,14.694 C 49.011,199.133 34.138,242.917 34.138,290.132 34.137,412.476 133.661,512 256.003,512 378.337,512 477.87,412.476 477.87,290.133 c 0,-47.215 -14.874,-90.999 -40.124,-127.01 l 14.703,-14.694 c 4.898,4.045 10.854,6.195 16.888,6.195 z M 238.937,51.2 h 34.133 v 17.758 c -0.324,-0.026 -0.623,-0.017 -0.939,-0.034 -5.333,-0.393 -10.701,-0.657 -16.128,-0.657 -5.436,0 -10.795,0.265 -16.128,0.657 -0.324,0.017 -0.623,0.009 -0.939,0.034 V 51.2 Z m -167.134,85.333 17.801,-17.801 12.058,12.066 c -6.059,5.862 -11.767,12.049 -17.092,18.509 z m 371.934,153.6 c 0,51.592 -20.924,98.372 -54.716,132.343 -0.119,0.119 -0.154,0.282 -0.273,0.41 -0.119,0.119 -0.282,0.154 -0.41,0.265 -33.963,33.801 -80.751,54.716 -132.335,54.716 -51.593,0 -98.372,-20.915 -132.344,-54.716 -0.119,-0.111 -0.282,-0.145 -0.41,-0.265 -0.119,-0.128 -0.154,-0.29 -0.265,-0.41 -33.799,-33.97 -54.714,-80.75 -54.714,-132.343 0,-51.584 20.915,-98.372 54.716,-132.335 0.111,-0.128 0.145,-0.29 0.265,-0.41 0.128,-0.119 0.29,-0.154 0.41,-0.265 33.971,-33.801 80.751,-54.724 132.344,-54.724 51.584,0 98.372,20.924 132.335,54.724 0.128,0.111 0.29,0.145 0.41,0.265 0.12,0.119 0.154,0.282 0.273,0.41 33.79,33.963 54.714,80.751 54.714,132.335 z M 427.429,149.308 c -5.325,-6.46 -11.034,-12.646 -17.084,-18.509 l 12.058,-12.066 17.8,17.801 z"
   id="path2"
   inkscape:connector-curvature="0" />
			<path
   d="m 401.066,281.604 h 25.165 c -2.022,-40.61 -18.227,-77.457 -43.861,-105.771 l -17.758,17.758 c -1.664,1.664 -3.849,2.5 -6.033,2.5 -2.185,0 -4.369,-0.836 -6.033,-2.5 -3.337,-3.336 -3.337,-8.73 0,-12.066 l 17.758,-17.758 C 341.99,138.133 305.143,121.928 264.533,119.906 v 25.165 c 0,4.71 -3.823,8.533 -8.533,8.533 -4.71,0 -8.533,-3.823 -8.533,-8.533 v -25.165 c -40.61,2.022 -77.457,18.227 -105.771,43.861 l 17.758,17.758 c 3.337,3.337 3.337,8.73 0,12.066 -1.664,1.664 -3.849,2.5 -6.033,2.5 -2.185,0 -4.369,-0.836 -6.033,-2.5 L 129.63,175.833 c -25.634,28.314 -41.839,65.161 -43.861,105.771 h 25.165 c 4.71,0 8.533,3.823 8.533,8.533 0,4.71 -3.823,8.533 -8.533,8.533 H 85.768 c 2.022,40.61 18.227,77.457 43.861,105.771 l 17.758,-17.758 c 3.337,-3.336 8.73,-3.336 12.066,0 3.337,3.337 3.337,8.73 0,12.066 l -17.758,17.758 c 28.314,25.626 65.161,41.839 105.771,43.861 v -25.165 c 0,-4.71 3.823,-8.533 8.533,-8.533 4.71,0 8.533,3.823 8.533,8.533 v 25.165 c 40.61,-2.022 77.457,-18.236 105.771,-43.861 l -17.758,-17.758 c -3.337,-3.337 -3.337,-8.73 0,-12.066 3.337,-3.336 8.73,-3.336 12.066,0 l 17.758,17.758 C 408.003,376.127 424.208,339.28 426.23,298.67 h -25.165 c -4.71,0 -8.533,-3.823 -8.533,-8.533 0.001,-4.71 3.824,-8.533 8.534,-8.533 z M 256,324.066 c -18.765,0 -34.031,-15.266 -34.031,-34.031 0,-15.804 10.871,-29.005 25.498,-32.819 v -78.012 c 0,-4.71 3.823,-8.533 8.533,-8.533 4.71,0 8.533,3.823 8.533,8.533 v 78.012 c 14.626,3.814 25.498,17.015 25.498,32.819 0,18.765 -15.266,34.031 -34.031,34.031 z"
   id="path4"
   inkscape:connector-curvature="0" />
			<path
   d="m 256,273.07 c -9.353,0 -16.964,7.612 -16.964,16.964 0,9.352 7.612,16.964 16.964,16.964 9.352,0 16.964,-7.612 16.964,-16.964 0,-9.352 -7.612,-16.964 -16.964,-16.964 z"
   id="path6"
   inkscape:connector-curvature="0" />
		</g>
	</g>
</g>
<g
   id="g14"
   transform="translate(0,-112)">
</g>
<g
   id="g16"
   transform="translate(0,-112)">
</g>
<g
   id="g18"
   transform="translate(0,-112)">
</g>
<g
   id="g20"
   transform="translate(0,-112)">
</g>
<g
   id="g22"
   transform="translate(0,-112)">
</g>
<g
   id="g24"
   transform="translate(0,-112)">
</g>
<g
   id="g26"
   transform="translate(0,-112)">
</g>
<g
   id="g28"
   transform="translate(0,-112)">
</g>
<g
   id="g30"
   transform="translate(0,-112)">
</g>
<g
   id="g32"
   transform="translate(0,-112)">
</g>
<g
   id="g34"
   transform="translate(0,-112)">
</g>
<g
   id="g36"
   transform="translate(0,-112)">
</g>
<g
   id="g38"
   transform="translate(0,-112)">
</g>
<g
   id="g40"
   transform="translate(0,-112)">
</g>
<g
   id="g42"
   transform="translate(0,-112)">
</g>
</svg>