<?xml version="1.0" encoding="UTF-8" standalone="no"?>
<!-- Generator: Adobe Illustrator 18.0.0, SVG Export Plug-In . SVG Version: 6.00 Build 0)  -->

<svg
   xmlns:dc="http://purl.org/dc/elements/1.1/"
   xmlns:cc="http://creativecommons.org/ns#"
   xmlns:rdf="http://www.w3.org/1999/02/22-rdf-syntax-ns#"
   xmlns:svg="http://www.w3.org/2000/svg"
   xmlns="http://www.w3.org/2000/svg"
   xmlns:sodipodi="http://sodipodi.sourceforge.net/DTD/sodipodi-0.dtd"
   xmlns:inkscape="http://www.inkscape.org/namespaces/inkscape"
   version="1.1"
   id="Capa_1"
   x="0px"
   y="0px"
   viewBox="0 0 399.99999 400"
   xml:space="preserve"
   sodipodi:docname="verifying-syl.svg"
   width="400"
   height="400"
   inkscape:version="0.92.4 5da689c313, 2019-01-14"><metadata
   id="metadata41"><rdf:RDF><cc:Work
       rdf:about=""><dc:format>image/svg+xml</dc:format><dc:type
         rdf:resource="http://purl.org/dc/dcmitype/StillImage" /><dc:title></dc:title></cc:Work></rdf:RDF></metadata><defs
   id="defs39" /><sodipodi:namedview
   pagecolor="#ffffff"
   bordercolor="#666666"
   borderopacity="1"
   objecttolerance="10"
   gridtolerance="10"
   guidetolerance="10"
   inkscape:pageopacity="0"
   inkscape:pageshadow="2"
   inkscape:window-width="1533"
   inkscape:window-height="845"
   id="namedview37"
   showgrid="false"
   fit-margin-top="0"
   fit-margin-left="0"
   fit-margin-right="0"
   fit-margin-bottom="0"
   inkscape:zoom="0.51979287"
   inkscape:cx="-158.71707"
   inkscape:cy="127.0135"
   inkscape:window-x="67"
   inkscape:window-y="27"
   inkscape:window-maximized="1"
   inkscape:current-layer="Capa_1" />
<g
   id="XMLID_304_"
   transform="matrix(0.88100681,0,0,0.84736068,0,7.6376867)">
	<path
   id="XMLID_305_"
   d="m 367.74,140.08 c -14.427,-10.357 -32.066,-16.525 -51.183,-16.525 -2.635,0 -5.228,0.164 -7.803,0.396 C 298.32,114.758 284.783,109 269.787,109 c -16.861,0 -31.991,7.132 -42.772,18.452 C 216.231,116.132 201.101,109 184.24,109 c -14.995,0 -28.533,5.758 -38.966,14.95 -2.575,-0.231 -5.168,-0.396 -7.803,-0.396 -19.117,0 -36.756,6.168 -51.183,16.525 C 37.413,148.197 0,190.651 0,241.796 c 0,56.926 46.306,103.231 103.231,103.231 40.123,0 74.885,-23.052 91.963,-56.566 7.937,7.414 18.511,12.045 30.206,12.045 12.807,0 24.269,-5.526 32.387,-14.219 16.66,34.68 52.026,58.74 93.008,58.74 56.925,0 103.231,-46.306 103.231,-103.231 10e-4,-51.145 -37.411,-93.599 -86.286,-101.716 z M 103.231,314.439 c -40.055,0 -72.645,-32.588 -72.645,-72.643 0,-40.056 32.589,-72.645 72.645,-72.645 40.056,0 72.644,32.589 72.644,72.645 0,40.056 -32.588,72.643 -72.644,72.643 z m 122.17,-40.459 c -9.864,0 -17.886,-8.02 -17.886,-17.884 0,-9.866 8.022,-17.886 17.886,-17.886 9.864,0 17.892,8.02 17.892,17.886 -0.001,9.865 -8.028,17.884 -17.892,17.884 z m 125.395,40.459 c -40.056,0 -72.645,-32.588 -72.645,-72.643 0,-40.056 32.589,-72.645 72.645,-72.645 40.055,0 72.645,32.589 72.645,72.645 -10e-4,40.056 -32.59,72.643 -72.645,72.643 z"
   inkscape:connector-curvature="0" />
	<path
   id="XMLID_310_"
   d="m 102.688,179.104 c -34.568,0 -62.692,28.123 -62.692,62.692 0,5.522 4.477,10 10,10 5.523,0 10,-4.478 10,-10 0,-23.541 19.151,-42.692 42.692,-42.692 5.523,0 10,-4.478 10,-10 0,-5.524 -4.478,-10 -10,-10 z"
   inkscape:connector-curvature="0" />
	<path
   id="XMLID_311_"
   d="m 350.719,179.104 c -34.568,0 -62.692,28.123 -62.692,62.692 0,5.522 4.477,10 10,10 5.523,0 10,-4.478 10,-10 0,-23.541 19.151,-42.692 42.692,-42.692 5.523,0 10,-4.478 10,-10 0,-5.524 -4.477,-10 -10,-10 z"
   inkscape:connector-curvature="0" />
</g>
<g
   id="g6"
   transform="translate(0,45.97299)">
</g>
<g
   id="g8"
   transform="translate(0,45.97299)">
</g>
<g
   id="g10"
   transform="translate(0,45.97299)">
</g>
<g
   id="g12"
   transform="translate(0,45.97299)">
</g>
<g
   id="g14"
   transform="translate(0,45.97299)">
</g>
<g
   id="g16"
   transform="translate(0,45.97299)">
</g>
<g
   id="g18"
   transform="translate(0,45.97299)">
</g>
<g
   id="g20"
   transform="translate(0,45.97299)">
</g>
<g
   id="g22"
   transform="translate(0,45.97299)">
</g>
<g
   id="g24"
   transform="translate(0,45.97299)">
</g>
<g
   id="g26"
   transform="translate(0,45.97299)">
</g>
<g
   id="g28"
   transform="translate(0,45.97299)">
</g>
<g
   id="g30"
   transform="translate(0,45.97299)">
</g>
<g
   id="g32"
   transform="translate(0,45.97299)">
</g>
<g
   id="g34"
   transform="translate(0,45.97299)">
</g>
</svg>