<?xml version="1.0" encoding="UTF-8" standalone="no"?>
<!-- Generator: Adobe Illustrator 16.0.0, SVG Export Plug-In . SVG Version: 6.00 Build 0)  -->

<svg
   xmlns:dc="http://purl.org/dc/elements/1.1/"
   xmlns:cc="http://creativecommons.org/ns#"
   xmlns:rdf="http://www.w3.org/1999/02/22-rdf-syntax-ns#"
   xmlns:svg="http://www.w3.org/2000/svg"
   xmlns="http://www.w3.org/2000/svg"
   xmlns:sodipodi="http://sodipodi.sourceforge.net/DTD/sodipodi-0.dtd"
   xmlns:inkscape="http://www.inkscape.org/namespaces/inkscape"
   version="1.1"
   id="Capa_1"
   x="0px"
   y="0px"
   width="400"
   height="400"
   viewBox="0 0 400 400"
   xml:space="preserve"
   sodipodi:docname="verifying-syl.svg"
   inkscape:version="0.92.4 5da689c313, 2019-01-14"><metadata
   id="metadata43"><rdf:RDF><cc:Work
       rdf:about=""><dc:format>image/svg+xml</dc:format><dc:type
         rdf:resource="http://purl.org/dc/dcmitype/StillImage" /><dc:title></dc:title></cc:Work></rdf:RDF></metadata><defs
   id="defs41" /><sodipodi:namedview
   pagecolor="#ffffff"
   bordercolor="#666666"
   borderopacity="1"
   objecttolerance="10"
   gridtolerance="10"
   guidetolerance="10"
   inkscape:pageopacity="0"
   inkscape:pageshadow="2"
   inkscape:window-width="1533"
   inkscape:window-height="845"
   id="namedview39"
   showgrid="false"
   fit-margin-top="0"
   fit-margin-left="0"
   fit-margin-right="0"
   fit-margin-bottom="0"
   inkscape:zoom="1.888"
   inkscape:cx="62.5"
   inkscape:cy="62.5"
   inkscape:window-x="67"
   inkscape:window-y="27"
   inkscape:window-maximized="1"
   inkscape:current-layer="Capa_1" />
<g
   id="g6"
   transform="matrix(3.3664647,0,0,3.2,-10.405742,0)">
	<path
   d="m 60.591,78.6 c 4.7,0 9.2,1.4 13.1,4 0,0 19.4,-19.6 20.4,-20.1 V 5.8 c 0,-3.2 -2.8,-5.8 -6.1,-5.8 h -79.5 c -3.2,0 -5.4,2.6 -5.4,5.8 v 108.6 c 0,3.199 2.2,5.5 5.4,5.5 h 38.2 l -2.4,-2.2 c -4.4,-4.4 -6.7,-10 -6.7,-16.2 0,-6.2 2.4,-11.9 6.7,-16.3 4.4,-4.2 10.1,-6.6 16.3,-6.6 z m -27.5,-62.8 c 0,-3.2 2.6,-5.8 5.8,-5.8 h 39.4 c 3.2,0 5.8,2.6 5.8,5.8 v 2.4 c 0,3.2 -2.6,5.8 -5.8,5.8 h -39.4 c -3.2,0 -5.8,-2.6 -5.8,-5.8 z m 0,22 c 0,-3.2 2.6,-5.8 5.8,-5.8 h 39.4 c 3.2,0 5.8,2.6 5.8,5.8 v 2.4 c 0,3.2 -2.6,5.8 -5.8,5.8 h -39.4 c -3.2,0 -5.8,-2.6 -5.8,-5.8 z m -13.9,29.5 c -3.8,0 -6.8,-3 -6.8,-6.8 0,-3.8 3,-6.8 6.8,-6.8 3.8,0 6.8,3 6.8,6.8 0,3.8 -3.1,6.8 -6.8,6.8 z m 0,-22.3 c -3.8,0 -6.8,-3 -6.8,-6.8 0,-3.8 3,-6.8 6.8,-6.8 3.8,0 6.8,3 6.8,6.8 0,3.7 -3.1,6.8 -6.8,6.8 z m 0,-21.4 c -3.8,0 -6.8,-3 -6.8,-6.8 0,-3.8 3,-6.8 6.8,-6.8 3.8,0 6.8,3 6.8,6.8 0,3.8 -3.1,6.8 -6.8,6.8 z m 13.9,37.6 v -2.4 c 0,-3.2 2.6,-5.8 5.8,-5.8 h 39.4 c 3.2,0 5.8,2.6 5.8,5.8 v 2.4 c 0,3.2 -2.6,5.8 -5.8,5.8 h -39.4 c -3.2,0 -5.8,-2.6 -5.8,-5.8 z"
   id="path2"
   inkscape:connector-curvature="0" />
	<path
   d="m 67.291,122.1 c 1.899,1.9 4.399,2.9 7,2.9 2.6,0 5.1,-1 7,-2.9 l 37.6,-37.6 c 3.8,-3.8 4.101,-10 0.4,-13.9 -3.8,-4.1 -10.3,-4.199 -14.2,-0.199 L 78.391,97.1 c -2.3,2.301 -5.899,2.301 -8.2,0 l -3.5,-3.5 c -3.899,-3.899 -10.1,-3.899 -14,0 -3.9,3.9 -3.9,10.101 0,14 z"
   id="path4"
   inkscape:connector-curvature="0" />
</g>
<g
   id="g8"
   transform="translate(-3.8770004e-7,275)">
</g>
<g
   id="g10"
   transform="translate(-3.8770004e-7,275)">
</g>
<g
   id="g12"
   transform="translate(-3.8770004e-7,275)">
</g>
<g
   id="g14"
   transform="translate(-3.8770004e-7,275)">
</g>
<g
   id="g16"
   transform="translate(-3.8770004e-7,275)">
</g>
<g
   id="g18"
   transform="translate(-3.8770004e-7,275)">
</g>
<g
   id="g20"
   transform="translate(-3.8770004e-7,275)">
</g>
<g
   id="g22"
   transform="translate(-3.8770004e-7,275)">
</g>
<g
   id="g24"
   transform="translate(-3.8770004e-7,275)">
</g>
<g
   id="g26"
   transform="translate(-3.8770004e-7,275)">
</g>
<g
   id="g28"
   transform="translate(-3.8770004e-7,275)">
</g>
<g
   id="g30"
   transform="translate(-3.8770004e-7,275)">
</g>
<g
   id="g32"
   transform="translate(-3.8770004e-7,275)">
</g>
<g
   id="g34"
   transform="translate(-3.8770004e-7,275)">
</g>
<g
   id="g36"
   transform="translate(-3.8770004e-7,275)">
</g>
</svg>